%TF.GenerationSoftware,KiCad,Pcbnew,8.0.0*%
%TF.CreationDate,2024-04-21T11:23:51-04:00*%
%TF.ProjectId,7_keyboard_instrument,375f6b65-7962-46f6-9172-645f696e7374,rev?*%
%TF.SameCoordinates,Original*%
%TF.FileFunction,Soldermask,Bot*%
%TF.FilePolarity,Negative*%
%FSLAX46Y46*%
G04 Gerber Fmt 4.6, Leading zero omitted, Abs format (unit mm)*
G04 Created by KiCad (PCBNEW 8.0.0) date 2024-04-21 11:23:51*
%MOMM*%
%LPD*%
G01*
G04 APERTURE LIST*
%ADD10R,1.700000X1.700000*%
%ADD11O,1.700000X1.700000*%
%ADD12C,1.524000*%
%ADD13C,1.600000*%
%ADD14O,1.600000X1.600000*%
%ADD15C,3.200000*%
G04 APERTURE END LIST*
D10*
%TO.C,J1*%
X127940000Y-97460000D03*
D11*
X130480000Y-97460000D03*
X133020000Y-97460000D03*
X135560000Y-97460000D03*
X138100000Y-97460000D03*
X140640000Y-97460000D03*
X143180000Y-97460000D03*
X145720000Y-97460000D03*
%TD*%
D10*
%TO.C,J3*%
X150800000Y-97460000D03*
D11*
X153340000Y-97460000D03*
X155880000Y-97460000D03*
X158420000Y-97460000D03*
X160960000Y-97460000D03*
X163500000Y-97460000D03*
%TD*%
D10*
%TO.C,J2*%
X118796000Y-49200000D03*
D11*
X121336000Y-49200000D03*
X123876000Y-49200000D03*
X126416000Y-49200000D03*
X128956000Y-49200000D03*
X131496000Y-49200000D03*
X134036000Y-49200000D03*
X136576000Y-49200000D03*
X139116000Y-49200000D03*
X141656000Y-49200000D03*
%TD*%
D10*
%TO.C,J4*%
X145720000Y-49200000D03*
D11*
X148260000Y-49200000D03*
X150800000Y-49200000D03*
X153340000Y-49200000D03*
X155880000Y-49200000D03*
X158420000Y-49200000D03*
X160960000Y-49200000D03*
X163500000Y-49200000D03*
%TD*%
D12*
%TO.C,SW2*%
X124000000Y-89000000D03*
X124000000Y-82500000D03*
X128500000Y-82500000D03*
X128500000Y-89000000D03*
%TD*%
%TO.C,SW4*%
X140000000Y-89000000D03*
X140000000Y-82500000D03*
X144500000Y-82500000D03*
X144500000Y-89000000D03*
%TD*%
%TO.C,SW1*%
X116000000Y-89000000D03*
X116000000Y-82500000D03*
X120500000Y-82500000D03*
X120500000Y-89000000D03*
%TD*%
D13*
%TO.C,R4*%
X158000000Y-78160000D03*
D14*
X158000000Y-68000000D03*
%TD*%
D12*
%TO.C,SW3*%
X132000000Y-89000000D03*
X132000000Y-82500000D03*
X136500000Y-82500000D03*
X136500000Y-89000000D03*
%TD*%
D15*
%TO.C,MH1*%
X115240000Y-49200000D03*
%TD*%
D12*
%TO.C,LS1*%
X151000000Y-58500000D03*
X161000000Y-58500000D03*
%TD*%
D15*
%TO.C,MH2*%
X113970000Y-97460000D03*
%TD*%
%TO.C,MH3*%
X166040000Y-64440000D03*
%TD*%
%TO.C,MH4*%
X166040000Y-92380000D03*
%TD*%
D13*
%TO.C,R1*%
X122000000Y-65840000D03*
D14*
X122000000Y-76000000D03*
%TD*%
D13*
%TO.C,R3*%
X138500000Y-65840000D03*
D14*
X138500000Y-76000000D03*
%TD*%
D13*
%TO.C,R2*%
X130500000Y-65840000D03*
D14*
X130500000Y-76000000D03*
%TD*%
M02*
