M48
METRIC,TZ
T1C0.762
T2C0.800
T3C1.000
%
G90
G05
T1
X51000Y41500
X61000Y41500
T2
X22000Y34160
X22000Y24000
X30500Y34160
X30500Y24000
X38500Y34160
X38500Y24000
X58000Y32000
X58000Y21840
T3
X16000Y17500
X16000Y11000
X18796Y50800
X20500Y17500
X20500Y11000
X21336Y50800
X23876Y50800
X24000Y17500
X24000Y11000
X26416Y50800
X27940Y2540
X28500Y17500
X28500Y11000
X28956Y50800
X30480Y2540
X31496Y50800
X32000Y17500
X32000Y11000
X33020Y2540
X34036Y50800
X35560Y2540
X36500Y17500
X36500Y11000
X36576Y50800
X38100Y2540
X39116Y50800
X40000Y17500
X40000Y11000
X40640Y2540
X41656Y50800
X43180Y2540
X44500Y17500
X44500Y11000
X45720Y50800
X45720Y2540
X48260Y50800
X50800Y50800
X50800Y2540
X53340Y50800
X53340Y2540
X55880Y50800
X55880Y2540
X58420Y50800
X58420Y2540
X60960Y50800
X60960Y2540
X63500Y50800
X63500Y2540
M30
