%TF.GenerationSoftware,KiCad,Pcbnew,8.0.0*%
%TF.CreationDate,2024-04-21T11:23:51-04:00*%
%TF.ProjectId,7_keyboard_instrument,375f6b65-7962-46f6-9172-645f696e7374,rev?*%
%TF.SameCoordinates,Original*%
%TF.FileFunction,Legend,Top*%
%TF.FilePolarity,Positive*%
%FSLAX46Y46*%
G04 Gerber Fmt 4.6, Leading zero omitted, Abs format (unit mm)*
G04 Created by KiCad (PCBNEW 8.0.0) date 2024-04-21 11:23:51*
%MOMM*%
%LPD*%
G01*
G04 APERTURE LIST*
%ADD10C,0.150000*%
%ADD11C,0.100000*%
%ADD12C,0.120000*%
%ADD13C,0.000000*%
%ADD14C,0.350000*%
G04 APERTURE END LIST*
D10*
X20000000Y36500000D02*
X24500000Y36500000D01*
X24500000Y21500000D01*
X20000000Y21500000D01*
X20000000Y36500000D01*
G36*
X20000000Y36500000D02*
G01*
X24500000Y36500000D01*
X24500000Y21500000D01*
X20000000Y21500000D01*
X20000000Y36500000D01*
G37*
X36000000Y36500000D02*
X40500000Y36500000D01*
X40500000Y21500000D01*
X36000000Y21500000D01*
X36000000Y36500000D01*
G36*
X36000000Y36500000D02*
G01*
X40500000Y36500000D01*
X40500000Y21500000D01*
X36000000Y21500000D01*
X36000000Y36500000D01*
G37*
X19500000Y21000000D02*
X22000000Y21000000D01*
X22000000Y9000000D01*
X14500000Y9000000D01*
X14500000Y36500000D01*
X19500000Y36500000D01*
X19500000Y21000000D01*
X28000000Y36500000D02*
X32500000Y36500000D01*
X32500000Y21500000D01*
X28000000Y21500000D01*
X28000000Y36500000D01*
G36*
X28000000Y36500000D02*
G01*
X32500000Y36500000D01*
X32500000Y21500000D01*
X28000000Y21500000D01*
X28000000Y36500000D01*
G37*
X35500000Y21000000D02*
X38000000Y21000000D01*
X38000000Y9000000D01*
X30500000Y9000000D01*
X30500000Y21000000D01*
X33000000Y21000000D01*
X33000000Y36500000D01*
X35500000Y36500000D01*
X35500000Y21000000D01*
X46000000Y9000000D02*
X38500000Y9000000D01*
X38500000Y21000000D01*
X41000000Y21000000D01*
X41000000Y36500000D01*
X46000000Y36500000D01*
X46000000Y9000000D01*
X27500000Y21000000D02*
X30000000Y21000000D01*
X30000000Y9000000D01*
X22500000Y9000000D01*
X22500000Y21000000D01*
X25000000Y21000000D01*
X25000000Y36500000D01*
X27500000Y36500000D01*
X27500000Y21000000D01*
D11*
X23909800Y9666668D02*
X23957419Y9809525D01*
X23957419Y9809525D02*
X23957419Y10047620D01*
X23957419Y10047620D02*
X23909800Y10142858D01*
X23909800Y10142858D02*
X23862180Y10190477D01*
X23862180Y10190477D02*
X23766942Y10238096D01*
X23766942Y10238096D02*
X23671704Y10238096D01*
X23671704Y10238096D02*
X23576466Y10190477D01*
X23576466Y10190477D02*
X23528847Y10142858D01*
X23528847Y10142858D02*
X23481228Y10047620D01*
X23481228Y10047620D02*
X23433609Y9857144D01*
X23433609Y9857144D02*
X23385990Y9761906D01*
X23385990Y9761906D02*
X23338371Y9714287D01*
X23338371Y9714287D02*
X23243133Y9666668D01*
X23243133Y9666668D02*
X23147895Y9666668D01*
X23147895Y9666668D02*
X23052657Y9714287D01*
X23052657Y9714287D02*
X23005038Y9761906D01*
X23005038Y9761906D02*
X22957419Y9857144D01*
X22957419Y9857144D02*
X22957419Y10095239D01*
X22957419Y10095239D02*
X23005038Y10238096D01*
X22957419Y10571430D02*
X23957419Y10809525D01*
X23957419Y10809525D02*
X23243133Y11000001D01*
X23243133Y11000001D02*
X23957419Y11190477D01*
X23957419Y11190477D02*
X22957419Y11428572D01*
X23052657Y11761906D02*
X23005038Y11809525D01*
X23005038Y11809525D02*
X22957419Y11904763D01*
X22957419Y11904763D02*
X22957419Y12142858D01*
X22957419Y12142858D02*
X23005038Y12238096D01*
X23005038Y12238096D02*
X23052657Y12285715D01*
X23052657Y12285715D02*
X23147895Y12333334D01*
X23147895Y12333334D02*
X23243133Y12333334D01*
X23243133Y12333334D02*
X23385990Y12285715D01*
X23385990Y12285715D02*
X23957419Y11714287D01*
X23957419Y11714287D02*
X23957419Y12333334D01*
X39909800Y9666668D02*
X39957419Y9809525D01*
X39957419Y9809525D02*
X39957419Y10047620D01*
X39957419Y10047620D02*
X39909800Y10142858D01*
X39909800Y10142858D02*
X39862180Y10190477D01*
X39862180Y10190477D02*
X39766942Y10238096D01*
X39766942Y10238096D02*
X39671704Y10238096D01*
X39671704Y10238096D02*
X39576466Y10190477D01*
X39576466Y10190477D02*
X39528847Y10142858D01*
X39528847Y10142858D02*
X39481228Y10047620D01*
X39481228Y10047620D02*
X39433609Y9857144D01*
X39433609Y9857144D02*
X39385990Y9761906D01*
X39385990Y9761906D02*
X39338371Y9714287D01*
X39338371Y9714287D02*
X39243133Y9666668D01*
X39243133Y9666668D02*
X39147895Y9666668D01*
X39147895Y9666668D02*
X39052657Y9714287D01*
X39052657Y9714287D02*
X39005038Y9761906D01*
X39005038Y9761906D02*
X38957419Y9857144D01*
X38957419Y9857144D02*
X38957419Y10095239D01*
X38957419Y10095239D02*
X39005038Y10238096D01*
X38957419Y10571430D02*
X39957419Y10809525D01*
X39957419Y10809525D02*
X39243133Y11000001D01*
X39243133Y11000001D02*
X39957419Y11190477D01*
X39957419Y11190477D02*
X38957419Y11428572D01*
X39290752Y12238096D02*
X39957419Y12238096D01*
X38909800Y12000001D02*
X39624085Y11761906D01*
X39624085Y11761906D02*
X39624085Y12380953D01*
X15909800Y9666668D02*
X15957419Y9809525D01*
X15957419Y9809525D02*
X15957419Y10047620D01*
X15957419Y10047620D02*
X15909800Y10142858D01*
X15909800Y10142858D02*
X15862180Y10190477D01*
X15862180Y10190477D02*
X15766942Y10238096D01*
X15766942Y10238096D02*
X15671704Y10238096D01*
X15671704Y10238096D02*
X15576466Y10190477D01*
X15576466Y10190477D02*
X15528847Y10142858D01*
X15528847Y10142858D02*
X15481228Y10047620D01*
X15481228Y10047620D02*
X15433609Y9857144D01*
X15433609Y9857144D02*
X15385990Y9761906D01*
X15385990Y9761906D02*
X15338371Y9714287D01*
X15338371Y9714287D02*
X15243133Y9666668D01*
X15243133Y9666668D02*
X15147895Y9666668D01*
X15147895Y9666668D02*
X15052657Y9714287D01*
X15052657Y9714287D02*
X15005038Y9761906D01*
X15005038Y9761906D02*
X14957419Y9857144D01*
X14957419Y9857144D02*
X14957419Y10095239D01*
X14957419Y10095239D02*
X15005038Y10238096D01*
X14957419Y10571430D02*
X15957419Y10809525D01*
X15957419Y10809525D02*
X15243133Y11000001D01*
X15243133Y11000001D02*
X15957419Y11190477D01*
X15957419Y11190477D02*
X14957419Y11428572D01*
X15957419Y12333334D02*
X15957419Y11761906D01*
X15957419Y12047620D02*
X14957419Y12047620D01*
X14957419Y12047620D02*
X15100276Y11952382D01*
X15100276Y11952382D02*
X15195514Y11857144D01*
X15195514Y11857144D02*
X15243133Y11761906D01*
D10*
X56084819Y26753334D02*
X55608628Y26420001D01*
X56084819Y26181906D02*
X55084819Y26181906D01*
X55084819Y26181906D02*
X55084819Y26562858D01*
X55084819Y26562858D02*
X55132438Y26658096D01*
X55132438Y26658096D02*
X55180057Y26705715D01*
X55180057Y26705715D02*
X55275295Y26753334D01*
X55275295Y26753334D02*
X55418152Y26753334D01*
X55418152Y26753334D02*
X55513390Y26705715D01*
X55513390Y26705715D02*
X55561009Y26658096D01*
X55561009Y26658096D02*
X55608628Y26562858D01*
X55608628Y26562858D02*
X55608628Y26181906D01*
X55418152Y27610477D02*
X56084819Y27610477D01*
X55037200Y27372382D02*
X55751485Y27134287D01*
X55751485Y27134287D02*
X55751485Y27753334D01*
X60824819Y25753334D02*
X60824819Y25181906D01*
X60824819Y25467620D02*
X59824819Y25467620D01*
X59824819Y25467620D02*
X59967676Y25372382D01*
X59967676Y25372382D02*
X60062914Y25277144D01*
X60062914Y25277144D02*
X60110533Y25181906D01*
X59824819Y26372382D02*
X59824819Y26467620D01*
X59824819Y26467620D02*
X59872438Y26562858D01*
X59872438Y26562858D02*
X59920057Y26610477D01*
X59920057Y26610477D02*
X60015295Y26658096D01*
X60015295Y26658096D02*
X60205771Y26705715D01*
X60205771Y26705715D02*
X60443866Y26705715D01*
X60443866Y26705715D02*
X60634342Y26658096D01*
X60634342Y26658096D02*
X60729580Y26610477D01*
X60729580Y26610477D02*
X60777200Y26562858D01*
X60777200Y26562858D02*
X60824819Y26467620D01*
X60824819Y26467620D02*
X60824819Y26372382D01*
X60824819Y26372382D02*
X60777200Y26277144D01*
X60777200Y26277144D02*
X60729580Y26229525D01*
X60729580Y26229525D02*
X60634342Y26181906D01*
X60634342Y26181906D02*
X60443866Y26134287D01*
X60443866Y26134287D02*
X60205771Y26134287D01*
X60205771Y26134287D02*
X60015295Y26181906D01*
X60015295Y26181906D02*
X59920057Y26229525D01*
X59920057Y26229525D02*
X59872438Y26277144D01*
X59872438Y26277144D02*
X59824819Y26372382D01*
X60824819Y27134287D02*
X59824819Y27134287D01*
X60443866Y27229525D02*
X60824819Y27515239D01*
X60158152Y27515239D02*
X60539104Y27134287D01*
X60824819Y27896192D02*
X60824819Y28134287D01*
X60824819Y28134287D02*
X60634342Y28134287D01*
X60634342Y28134287D02*
X60586723Y28039049D01*
X60586723Y28039049D02*
X60491485Y27943811D01*
X60491485Y27943811D02*
X60348628Y27896192D01*
X60348628Y27896192D02*
X60110533Y27896192D01*
X60110533Y27896192D02*
X59967676Y27943811D01*
X59967676Y27943811D02*
X59872438Y28039049D01*
X59872438Y28039049D02*
X59824819Y28181906D01*
X59824819Y28181906D02*
X59824819Y28372382D01*
X59824819Y28372382D02*
X59872438Y28515239D01*
X59872438Y28515239D02*
X59967676Y28610477D01*
X59967676Y28610477D02*
X60110533Y28658096D01*
X60110533Y28658096D02*
X60348628Y28658096D01*
X60348628Y28658096D02*
X60491485Y28610477D01*
X60491485Y28610477D02*
X60586723Y28515239D01*
X60586723Y28515239D02*
X60634342Y28420001D01*
X60634342Y28420001D02*
X60824819Y28420001D01*
X60824819Y28420001D02*
X60824819Y28658096D01*
D11*
X31909800Y9666668D02*
X31957419Y9809525D01*
X31957419Y9809525D02*
X31957419Y10047620D01*
X31957419Y10047620D02*
X31909800Y10142858D01*
X31909800Y10142858D02*
X31862180Y10190477D01*
X31862180Y10190477D02*
X31766942Y10238096D01*
X31766942Y10238096D02*
X31671704Y10238096D01*
X31671704Y10238096D02*
X31576466Y10190477D01*
X31576466Y10190477D02*
X31528847Y10142858D01*
X31528847Y10142858D02*
X31481228Y10047620D01*
X31481228Y10047620D02*
X31433609Y9857144D01*
X31433609Y9857144D02*
X31385990Y9761906D01*
X31385990Y9761906D02*
X31338371Y9714287D01*
X31338371Y9714287D02*
X31243133Y9666668D01*
X31243133Y9666668D02*
X31147895Y9666668D01*
X31147895Y9666668D02*
X31052657Y9714287D01*
X31052657Y9714287D02*
X31005038Y9761906D01*
X31005038Y9761906D02*
X30957419Y9857144D01*
X30957419Y9857144D02*
X30957419Y10095239D01*
X30957419Y10095239D02*
X31005038Y10238096D01*
X30957419Y10571430D02*
X31957419Y10809525D01*
X31957419Y10809525D02*
X31243133Y11000001D01*
X31243133Y11000001D02*
X31957419Y11190477D01*
X31957419Y11190477D02*
X30957419Y11428572D01*
X30957419Y11714287D02*
X30957419Y12333334D01*
X30957419Y12333334D02*
X31338371Y12000001D01*
X31338371Y12000001D02*
X31338371Y12142858D01*
X31338371Y12142858D02*
X31385990Y12238096D01*
X31385990Y12238096D02*
X31433609Y12285715D01*
X31433609Y12285715D02*
X31528847Y12333334D01*
X31528847Y12333334D02*
X31766942Y12333334D01*
X31766942Y12333334D02*
X31862180Y12285715D01*
X31862180Y12285715D02*
X31909800Y12238096D01*
X31909800Y12238096D02*
X31957419Y12142858D01*
X31957419Y12142858D02*
X31957419Y11857144D01*
X31957419Y11857144D02*
X31909800Y11761906D01*
X31909800Y11761906D02*
X31862180Y11714287D01*
X55357142Y41542581D02*
X54880952Y41542581D01*
X54880952Y41542581D02*
X54880952Y42542581D01*
X55642857Y41590200D02*
X55785714Y41542581D01*
X55785714Y41542581D02*
X56023809Y41542581D01*
X56023809Y41542581D02*
X56119047Y41590200D01*
X56119047Y41590200D02*
X56166666Y41637820D01*
X56166666Y41637820D02*
X56214285Y41733058D01*
X56214285Y41733058D02*
X56214285Y41828296D01*
X56214285Y41828296D02*
X56166666Y41923534D01*
X56166666Y41923534D02*
X56119047Y41971153D01*
X56119047Y41971153D02*
X56023809Y42018772D01*
X56023809Y42018772D02*
X55833333Y42066391D01*
X55833333Y42066391D02*
X55738095Y42114010D01*
X55738095Y42114010D02*
X55690476Y42161629D01*
X55690476Y42161629D02*
X55642857Y42256867D01*
X55642857Y42256867D02*
X55642857Y42352105D01*
X55642857Y42352105D02*
X55690476Y42447343D01*
X55690476Y42447343D02*
X55738095Y42494962D01*
X55738095Y42494962D02*
X55833333Y42542581D01*
X55833333Y42542581D02*
X56071428Y42542581D01*
X56071428Y42542581D02*
X56214285Y42494962D01*
X57166666Y41542581D02*
X56595238Y41542581D01*
X56880952Y41542581D02*
X56880952Y42542581D01*
X56880952Y42542581D02*
X56785714Y42399724D01*
X56785714Y42399724D02*
X56690476Y42304486D01*
X56690476Y42304486D02*
X56595238Y42256867D01*
D12*
%TO.C,J1*%
X26610000Y3870000D02*
X27940000Y3870000D01*
X26610000Y2540000D02*
X26610000Y3870000D01*
X29210000Y3870000D02*
X47050000Y3870000D01*
X29210000Y1210000D02*
X29210000Y3870000D01*
X29210000Y1210000D02*
X47050000Y1210000D01*
X47050000Y1210000D02*
X47050000Y3870000D01*
%TO.C,J3*%
X49470000Y3870000D02*
X50800000Y3870000D01*
X49470000Y2540000D02*
X49470000Y3870000D01*
X52070000Y3870000D02*
X64830000Y3870000D01*
X52070000Y1210000D02*
X52070000Y3870000D01*
X52070000Y1210000D02*
X64830000Y1210000D01*
X64830000Y1210000D02*
X64830000Y3870000D01*
%TO.C,J2*%
X17466000Y52130000D02*
X18796000Y52130000D01*
X17466000Y50800000D02*
X17466000Y52130000D01*
X20066000Y52130000D02*
X42986000Y52130000D01*
X20066000Y49470000D02*
X20066000Y52130000D01*
X20066000Y49470000D02*
X42986000Y49470000D01*
X42986000Y49470000D02*
X42986000Y52130000D01*
%TO.C,J4*%
X44390000Y52130000D02*
X45720000Y52130000D01*
X44390000Y50800000D02*
X44390000Y52130000D01*
X46990000Y52130000D02*
X64830000Y52130000D01*
X46990000Y49470000D02*
X46990000Y52130000D01*
X46990000Y49470000D02*
X64830000Y49470000D01*
X64830000Y49470000D02*
X64830000Y52130000D01*
D13*
%TO.C,G\u002A\u002A\u002A*%
G36*
X20924474Y44095373D02*
G01*
X21055028Y44061344D01*
X21171613Y44000965D01*
X21271623Y43916153D01*
X21352453Y43808827D01*
X21411497Y43680906D01*
X21446150Y43534307D01*
X21452489Y43472522D01*
X21455499Y43413212D01*
X21455795Y43370148D01*
X21453399Y43350387D01*
X21452091Y43350116D01*
X21440286Y43367903D01*
X21418378Y43406265D01*
X21392571Y43454153D01*
X21329127Y43561404D01*
X21264593Y43641587D01*
X21194201Y43700118D01*
X21156661Y43722256D01*
X21108247Y43745049D01*
X21062857Y43758447D01*
X21008603Y43764811D01*
X20933848Y43766502D01*
X20858647Y43765022D01*
X20803331Y43758606D01*
X20755185Y43744726D01*
X20701493Y43720856D01*
X20699733Y43719993D01*
X20649474Y43693069D01*
X20612320Y43668967D01*
X20597225Y43654165D01*
X20602468Y43635679D01*
X20620538Y43591075D01*
X20649951Y43523627D01*
X20689226Y43436607D01*
X20736879Y43333289D01*
X20791428Y43216947D01*
X20851391Y43090854D01*
X20868115Y43055982D01*
X20944367Y42895940D01*
X21009463Y42756542D01*
X21062718Y42639341D01*
X21103444Y42545891D01*
X21130955Y42477746D01*
X21144566Y42436459D01*
X21145973Y42427152D01*
X21131945Y42354496D01*
X21094260Y42276385D01*
X21038072Y42202807D01*
X21021607Y42186167D01*
X20936421Y42122032D01*
X20838156Y42076241D01*
X20734725Y42050618D01*
X20634040Y42046987D01*
X20544012Y42067170D01*
X20530586Y42072984D01*
X20459129Y42121527D01*
X20415021Y42184989D01*
X20398671Y42259770D01*
X20410492Y42342269D01*
X20450893Y42428885D01*
X20484619Y42475955D01*
X20570060Y42556230D01*
X20675365Y42611610D01*
X20797694Y42640718D01*
X20830594Y42643728D01*
X20888379Y42648989D01*
X20930827Y42655813D01*
X20949857Y42662844D01*
X20950193Y42663795D01*
X20943332Y42680721D01*
X20923732Y42723953D01*
X20892870Y42790359D01*
X20852221Y42876806D01*
X20803260Y42980163D01*
X20747465Y43097297D01*
X20686310Y43225076D01*
X20654759Y43290783D01*
X20591516Y43423284D01*
X20533166Y43547342D01*
X20481166Y43659725D01*
X20436974Y43757199D01*
X20402047Y43836530D01*
X20377842Y43894486D01*
X20365817Y43927833D01*
X20364794Y43934124D01*
X20383643Y43960308D01*
X20426950Y43991452D01*
X20487669Y44023796D01*
X20558753Y44053578D01*
X20631880Y44076705D01*
X20782556Y44101133D01*
X20924474Y44095373D01*
G37*
G36*
X25624431Y43000205D02*
G01*
X25661514Y42991476D01*
X25859401Y42928205D01*
X26040525Y42842380D01*
X26202400Y42736119D01*
X26342539Y42611540D01*
X26458456Y42470759D01*
X26547664Y42315894D01*
X26593720Y42197619D01*
X26612595Y42128010D01*
X26623634Y42058362D01*
X26628337Y41976404D01*
X26628714Y41911583D01*
X26612877Y41715934D01*
X26567480Y41533110D01*
X26491513Y41360013D01*
X26403031Y41219436D01*
X26369616Y41176014D01*
X26328547Y41126959D01*
X26284768Y41077585D01*
X26243223Y41033206D01*
X26208856Y40999138D01*
X26186611Y40980694D01*
X26180855Y40980606D01*
X26185591Y40998399D01*
X26198115Y41040285D01*
X26216291Y41099210D01*
X26229901Y41142601D01*
X26279169Y41325792D01*
X26304411Y41487070D01*
X26305657Y41626657D01*
X26299243Y41677637D01*
X26258405Y41821746D01*
X26188583Y41956384D01*
X26092879Y42078331D01*
X25974397Y42184362D01*
X25836240Y42271257D01*
X25681511Y42335793D01*
X25658621Y42342885D01*
X25600821Y42357081D01*
X25543894Y42366255D01*
X25496400Y42369622D01*
X25466896Y42366402D01*
X25461390Y42360916D01*
X25456675Y42343734D01*
X25443191Y42298543D01*
X25421928Y42228532D01*
X25393878Y42136891D01*
X25360031Y42026810D01*
X25321378Y41901479D01*
X25278911Y41764086D01*
X25233619Y41617823D01*
X25186494Y41465877D01*
X25138527Y41311440D01*
X25090708Y41157700D01*
X25044028Y41007847D01*
X24999479Y40865072D01*
X24958051Y40732563D01*
X24920734Y40613510D01*
X24888521Y40511102D01*
X24862401Y40428531D01*
X24843366Y40368984D01*
X24832406Y40335652D01*
X24831021Y40331725D01*
X24802978Y40279706D01*
X24758328Y40222099D01*
X24727188Y40190010D01*
X24628969Y40120005D01*
X24511473Y40073714D01*
X24378608Y40051802D01*
X24234284Y40054940D01*
X24091532Y40081361D01*
X23953453Y40129570D01*
X23830419Y40196280D01*
X23725647Y40278206D01*
X23642354Y40372058D01*
X23583755Y40474551D01*
X23553067Y40582397D01*
X23549194Y40635605D01*
X23563172Y40739625D01*
X23603179Y40829089D01*
X23665725Y40903491D01*
X23747324Y40962322D01*
X23844485Y41005075D01*
X23953720Y41031242D01*
X24071540Y41040315D01*
X24194457Y41031787D01*
X24318982Y41005150D01*
X24441626Y40959896D01*
X24558900Y40895517D01*
X24667315Y40811507D01*
X24679544Y40800102D01*
X24725823Y40757002D01*
X24762237Y40724859D01*
X24783142Y40708578D01*
X24785916Y40707623D01*
X24791458Y40723626D01*
X24805762Y40768005D01*
X24827931Y40837903D01*
X24857070Y40930468D01*
X24892284Y41042841D01*
X24932678Y41172170D01*
X24977355Y41315598D01*
X25025420Y41470270D01*
X25053597Y41561103D01*
X25127723Y41800219D01*
X25192806Y42010079D01*
X25249508Y42192645D01*
X25298487Y42349878D01*
X25340404Y42483738D01*
X25375918Y42596188D01*
X25405690Y42689189D01*
X25430379Y42764702D01*
X25450646Y42824687D01*
X25467150Y42871107D01*
X25480551Y42905922D01*
X25491510Y42931095D01*
X25500685Y42948585D01*
X25508737Y42960354D01*
X25516327Y42968364D01*
X25524113Y42974576D01*
X25530870Y42979527D01*
X25559751Y42998345D01*
X25586787Y43004858D01*
X25624431Y43000205D01*
G37*
G36*
X24046453Y44943134D02*
G01*
X24069522Y44926638D01*
X24087263Y44900316D01*
X24096014Y44881842D01*
X24100657Y44863800D01*
X24105564Y44829442D01*
X24110825Y44777205D01*
X24116531Y44705528D01*
X24122773Y44612850D01*
X24129642Y44497609D01*
X24137229Y44358243D01*
X24145625Y44193191D01*
X24154920Y44000892D01*
X24165205Y43779784D01*
X24176572Y43528305D01*
X24182323Y43398970D01*
X24191670Y43184283D01*
X24200351Y42977973D01*
X24208278Y42782511D01*
X24215366Y42600370D01*
X24221528Y42434021D01*
X24226677Y42285937D01*
X24230727Y42158587D01*
X24233591Y42054446D01*
X24235184Y41975983D01*
X24235417Y41925671D01*
X24234531Y41907135D01*
X24201874Y41812908D01*
X24140615Y41722861D01*
X24054813Y41642543D01*
X24025838Y41621809D01*
X23929773Y41565039D01*
X23833648Y41526448D01*
X23726854Y41502752D01*
X23602810Y41490880D01*
X23445939Y41492998D01*
X23308080Y41518299D01*
X23183997Y41568040D01*
X23118149Y41607325D01*
X23021285Y41687794D01*
X22954505Y41777514D01*
X22918203Y41873757D01*
X22912768Y41973793D01*
X22938593Y42074895D01*
X22996068Y42174333D01*
X23030815Y42216123D01*
X23129152Y42300645D01*
X23248174Y42365501D01*
X23381866Y42409890D01*
X23524216Y42433011D01*
X23669210Y42434064D01*
X23810837Y42412249D01*
X23943082Y42366763D01*
X23988647Y42343654D01*
X24031108Y42322079D01*
X24060738Y42311036D01*
X24068402Y42311087D01*
X24069438Y42328615D01*
X24068992Y42375105D01*
X24067185Y42446867D01*
X24064136Y42540214D01*
X24059967Y42651456D01*
X24054797Y42776903D01*
X24048787Y42912002D01*
X24041955Y43061351D01*
X24035152Y43211865D01*
X24028643Y43357576D01*
X24022692Y43492520D01*
X24017562Y43610730D01*
X24013516Y43706241D01*
X24011547Y43754472D01*
X24007747Y43840525D01*
X24003802Y43913720D01*
X24000069Y43968457D01*
X23996907Y43999138D01*
X23995567Y44003732D01*
X23979700Y43997629D01*
X23936797Y43980179D01*
X23869973Y43952672D01*
X23782340Y43916399D01*
X23677013Y43872650D01*
X23557104Y43822716D01*
X23425727Y43767886D01*
X23340218Y43732140D01*
X23195435Y43671617D01*
X23053562Y43612380D01*
X22918857Y43556203D01*
X22795577Y43504859D01*
X22687981Y43460120D01*
X22600327Y43423759D01*
X22536872Y43397550D01*
X22519305Y43390340D01*
X22411978Y43346339D01*
X22331162Y43312680D01*
X22273103Y43287353D01*
X22234045Y43268350D01*
X22210232Y43253662D01*
X22197909Y43241282D01*
X22193320Y43229200D01*
X22192707Y43215671D01*
X22193521Y43191671D01*
X22195722Y43138662D01*
X22199145Y43060289D01*
X22203626Y42960197D01*
X22209002Y42842030D01*
X22215108Y42709434D01*
X22221782Y42566051D01*
X22224878Y42500000D01*
X22232831Y42329317D01*
X22241182Y42147538D01*
X22249598Y41962103D01*
X22257744Y41780450D01*
X22265286Y41610018D01*
X22271892Y41458246D01*
X22276670Y41345925D01*
X22296590Y40870164D01*
X22251014Y40777010D01*
X22193744Y40690402D01*
X22113631Y40610705D01*
X22020452Y40546956D01*
X21981484Y40527847D01*
X21847216Y40482355D01*
X21703167Y40455474D01*
X21561685Y40448947D01*
X21476493Y40456517D01*
X21347024Y40487979D01*
X21227617Y40539115D01*
X21124138Y40606289D01*
X21042452Y40685870D01*
X20998414Y40752689D01*
X20972780Y40833047D01*
X20966823Y40925993D01*
X20980475Y41018064D01*
X21000041Y41071500D01*
X21060847Y41161835D01*
X21148119Y41241820D01*
X21256545Y41308776D01*
X21380812Y41360020D01*
X21515609Y41392872D01*
X21655623Y41404650D01*
X21660112Y41404649D01*
X21772843Y41394246D01*
X21893239Y41366466D01*
X22004640Y41325552D01*
X22040496Y41307798D01*
X22086838Y41285481D01*
X22117780Y41276084D01*
X22126886Y41279790D01*
X22126127Y41298775D01*
X22123974Y41347850D01*
X22120545Y41424448D01*
X22115955Y41526003D01*
X22110322Y41649949D01*
X22103763Y41793721D01*
X22096395Y41954753D01*
X22088333Y42130479D01*
X22079697Y42318333D01*
X22070601Y42515748D01*
X22069820Y42532690D01*
X22058135Y42785872D01*
X22047902Y43008483D01*
X22039102Y43202608D01*
X22031717Y43370331D01*
X22025729Y43513740D01*
X22021119Y43634917D01*
X22017869Y43735950D01*
X22015961Y43818923D01*
X22015378Y43885922D01*
X22016099Y43939031D01*
X22018108Y43980337D01*
X22021387Y44011924D01*
X22025916Y44035877D01*
X22031677Y44054283D01*
X22038654Y44069226D01*
X22046826Y44082791D01*
X22056150Y44097024D01*
X22095784Y44145586D01*
X22142821Y44186650D01*
X22158306Y44196469D01*
X22186383Y44209922D01*
X22240961Y44234248D01*
X22318322Y44267855D01*
X22414747Y44309152D01*
X22526516Y44356547D01*
X22649912Y44408448D01*
X22781216Y44463264D01*
X22797168Y44469897D01*
X22937995Y44528469D01*
X23079035Y44587225D01*
X23215126Y44644005D01*
X23341102Y44696651D01*
X23451798Y44743004D01*
X23542050Y44780908D01*
X23600884Y44805740D01*
X23729146Y44859458D01*
X23831159Y44900134D01*
X23910409Y44928303D01*
X23970384Y44944502D01*
X24014569Y44949267D01*
X24046453Y44943134D01*
G37*
D12*
%TO.C,R4*%
X56630000Y30190000D02*
X56630000Y23650000D01*
X56630000Y23650000D02*
X59370000Y23650000D01*
X58000000Y30960000D02*
X58000000Y30190000D01*
X58000000Y22880000D02*
X58000000Y23650000D01*
X59370000Y30190000D02*
X56630000Y30190000D01*
X59370000Y23650000D02*
X59370000Y30190000D01*
D11*
%TO.C,LS1*%
X62500000Y41500000D02*
G75*
G02*
X49500000Y41500000I-6500000J0D01*
G01*
X49500000Y41500000D02*
G75*
G02*
X62500000Y41500000I6500000J0D01*
G01*
D13*
%TO.C,G\u002A\u002A\u002A*%
G36*
X12924474Y47095373D02*
G01*
X13055028Y47061344D01*
X13171613Y47000965D01*
X13271623Y46916153D01*
X13352453Y46808827D01*
X13411497Y46680906D01*
X13446150Y46534307D01*
X13452489Y46472522D01*
X13455499Y46413212D01*
X13455795Y46370148D01*
X13453399Y46350387D01*
X13452091Y46350116D01*
X13440286Y46367903D01*
X13418378Y46406265D01*
X13392571Y46454153D01*
X13329127Y46561404D01*
X13264593Y46641587D01*
X13194201Y46700118D01*
X13156661Y46722256D01*
X13108247Y46745049D01*
X13062857Y46758447D01*
X13008603Y46764811D01*
X12933848Y46766502D01*
X12858647Y46765022D01*
X12803331Y46758606D01*
X12755185Y46744726D01*
X12701493Y46720856D01*
X12699733Y46719993D01*
X12649474Y46693069D01*
X12612320Y46668967D01*
X12597225Y46654165D01*
X12602468Y46635679D01*
X12620538Y46591075D01*
X12649951Y46523627D01*
X12689226Y46436607D01*
X12736879Y46333289D01*
X12791428Y46216947D01*
X12851391Y46090854D01*
X12868115Y46055982D01*
X12944367Y45895940D01*
X13009463Y45756542D01*
X13062718Y45639341D01*
X13103444Y45545891D01*
X13130955Y45477746D01*
X13144566Y45436459D01*
X13145973Y45427152D01*
X13131945Y45354496D01*
X13094260Y45276385D01*
X13038072Y45202807D01*
X13021607Y45186167D01*
X12936421Y45122032D01*
X12838156Y45076241D01*
X12734725Y45050618D01*
X12634040Y45046987D01*
X12544012Y45067170D01*
X12530586Y45072984D01*
X12459129Y45121527D01*
X12415021Y45184989D01*
X12398671Y45259770D01*
X12410492Y45342269D01*
X12450893Y45428885D01*
X12484619Y45475955D01*
X12570060Y45556230D01*
X12675365Y45611610D01*
X12797694Y45640718D01*
X12830594Y45643728D01*
X12888379Y45648989D01*
X12930827Y45655813D01*
X12949857Y45662844D01*
X12950193Y45663795D01*
X12943332Y45680721D01*
X12923732Y45723953D01*
X12892870Y45790359D01*
X12852221Y45876806D01*
X12803260Y45980163D01*
X12747465Y46097297D01*
X12686310Y46225076D01*
X12654759Y46290783D01*
X12591516Y46423284D01*
X12533166Y46547342D01*
X12481166Y46659725D01*
X12436974Y46757199D01*
X12402047Y46836530D01*
X12377842Y46894486D01*
X12365817Y46927833D01*
X12364794Y46934124D01*
X12383643Y46960308D01*
X12426950Y46991452D01*
X12487669Y47023796D01*
X12558753Y47053578D01*
X12631880Y47076705D01*
X12782556Y47101133D01*
X12924474Y47095373D01*
G37*
G36*
X17624431Y46000205D02*
G01*
X17661514Y45991476D01*
X17859401Y45928205D01*
X18040525Y45842380D01*
X18202400Y45736119D01*
X18342539Y45611540D01*
X18458456Y45470759D01*
X18547664Y45315894D01*
X18593720Y45197619D01*
X18612595Y45128010D01*
X18623634Y45058362D01*
X18628337Y44976404D01*
X18628714Y44911583D01*
X18612877Y44715934D01*
X18567480Y44533110D01*
X18491513Y44360013D01*
X18403031Y44219436D01*
X18369616Y44176014D01*
X18328547Y44126959D01*
X18284768Y44077585D01*
X18243223Y44033206D01*
X18208856Y43999138D01*
X18186611Y43980694D01*
X18180855Y43980606D01*
X18185591Y43998399D01*
X18198115Y44040285D01*
X18216291Y44099210D01*
X18229901Y44142601D01*
X18279169Y44325792D01*
X18304411Y44487070D01*
X18305657Y44626657D01*
X18299243Y44677637D01*
X18258405Y44821746D01*
X18188583Y44956384D01*
X18092879Y45078331D01*
X17974397Y45184362D01*
X17836240Y45271257D01*
X17681511Y45335793D01*
X17658621Y45342885D01*
X17600821Y45357081D01*
X17543894Y45366255D01*
X17496400Y45369622D01*
X17466896Y45366402D01*
X17461390Y45360916D01*
X17456675Y45343734D01*
X17443191Y45298543D01*
X17421928Y45228532D01*
X17393878Y45136891D01*
X17360031Y45026810D01*
X17321378Y44901479D01*
X17278911Y44764086D01*
X17233619Y44617823D01*
X17186494Y44465877D01*
X17138527Y44311440D01*
X17090708Y44157700D01*
X17044028Y44007847D01*
X16999479Y43865072D01*
X16958051Y43732563D01*
X16920734Y43613510D01*
X16888521Y43511102D01*
X16862401Y43428531D01*
X16843366Y43368984D01*
X16832406Y43335652D01*
X16831021Y43331725D01*
X16802978Y43279706D01*
X16758328Y43222099D01*
X16727188Y43190010D01*
X16628969Y43120005D01*
X16511473Y43073714D01*
X16378608Y43051802D01*
X16234284Y43054940D01*
X16091532Y43081361D01*
X15953453Y43129570D01*
X15830419Y43196280D01*
X15725647Y43278206D01*
X15642354Y43372058D01*
X15583755Y43474551D01*
X15553067Y43582397D01*
X15549194Y43635605D01*
X15563172Y43739625D01*
X15603179Y43829089D01*
X15665725Y43903491D01*
X15747324Y43962322D01*
X15844485Y44005075D01*
X15953720Y44031242D01*
X16071540Y44040315D01*
X16194457Y44031787D01*
X16318982Y44005150D01*
X16441626Y43959896D01*
X16558900Y43895517D01*
X16667315Y43811507D01*
X16679544Y43800102D01*
X16725823Y43757002D01*
X16762237Y43724859D01*
X16783142Y43708578D01*
X16785916Y43707623D01*
X16791458Y43723626D01*
X16805762Y43768005D01*
X16827931Y43837903D01*
X16857070Y43930468D01*
X16892284Y44042841D01*
X16932678Y44172170D01*
X16977355Y44315598D01*
X17025420Y44470270D01*
X17053597Y44561103D01*
X17127723Y44800219D01*
X17192806Y45010079D01*
X17249508Y45192645D01*
X17298487Y45349878D01*
X17340404Y45483738D01*
X17375918Y45596188D01*
X17405690Y45689189D01*
X17430379Y45764702D01*
X17450646Y45824687D01*
X17467150Y45871107D01*
X17480551Y45905922D01*
X17491510Y45931095D01*
X17500685Y45948585D01*
X17508737Y45960354D01*
X17516327Y45968364D01*
X17524113Y45974576D01*
X17530870Y45979527D01*
X17559751Y45998345D01*
X17586787Y46004858D01*
X17624431Y46000205D01*
G37*
G36*
X16046453Y47943134D02*
G01*
X16069522Y47926638D01*
X16087263Y47900316D01*
X16096014Y47881842D01*
X16100657Y47863800D01*
X16105564Y47829442D01*
X16110825Y47777205D01*
X16116531Y47705528D01*
X16122773Y47612850D01*
X16129642Y47497609D01*
X16137229Y47358243D01*
X16145625Y47193191D01*
X16154920Y47000892D01*
X16165205Y46779784D01*
X16176572Y46528305D01*
X16182323Y46398970D01*
X16191670Y46184283D01*
X16200351Y45977973D01*
X16208278Y45782511D01*
X16215366Y45600370D01*
X16221528Y45434021D01*
X16226677Y45285937D01*
X16230727Y45158587D01*
X16233591Y45054446D01*
X16235184Y44975983D01*
X16235417Y44925671D01*
X16234531Y44907135D01*
X16201874Y44812908D01*
X16140615Y44722861D01*
X16054813Y44642543D01*
X16025838Y44621809D01*
X15929773Y44565039D01*
X15833648Y44526448D01*
X15726854Y44502752D01*
X15602810Y44490880D01*
X15445939Y44492998D01*
X15308080Y44518299D01*
X15183997Y44568040D01*
X15118149Y44607325D01*
X15021285Y44687794D01*
X14954505Y44777514D01*
X14918203Y44873757D01*
X14912768Y44973793D01*
X14938593Y45074895D01*
X14996068Y45174333D01*
X15030815Y45216123D01*
X15129152Y45300645D01*
X15248174Y45365501D01*
X15381866Y45409890D01*
X15524216Y45433011D01*
X15669210Y45434064D01*
X15810837Y45412249D01*
X15943082Y45366763D01*
X15988647Y45343654D01*
X16031108Y45322079D01*
X16060738Y45311036D01*
X16068402Y45311087D01*
X16069438Y45328615D01*
X16068992Y45375105D01*
X16067185Y45446867D01*
X16064136Y45540214D01*
X16059967Y45651456D01*
X16054797Y45776903D01*
X16048787Y45912002D01*
X16041955Y46061351D01*
X16035152Y46211865D01*
X16028643Y46357576D01*
X16022692Y46492520D01*
X16017562Y46610730D01*
X16013516Y46706241D01*
X16011547Y46754472D01*
X16007747Y46840525D01*
X16003802Y46913720D01*
X16000069Y46968457D01*
X15996907Y46999138D01*
X15995567Y47003732D01*
X15979700Y46997629D01*
X15936797Y46980179D01*
X15869973Y46952672D01*
X15782340Y46916399D01*
X15677013Y46872650D01*
X15557104Y46822716D01*
X15425727Y46767886D01*
X15340218Y46732140D01*
X15195435Y46671617D01*
X15053562Y46612380D01*
X14918857Y46556203D01*
X14795577Y46504859D01*
X14687981Y46460120D01*
X14600327Y46423759D01*
X14536872Y46397550D01*
X14519305Y46390340D01*
X14411978Y46346339D01*
X14331162Y46312680D01*
X14273103Y46287353D01*
X14234045Y46268350D01*
X14210232Y46253662D01*
X14197909Y46241282D01*
X14193320Y46229200D01*
X14192707Y46215671D01*
X14193521Y46191671D01*
X14195722Y46138662D01*
X14199145Y46060289D01*
X14203626Y45960197D01*
X14209002Y45842030D01*
X14215108Y45709434D01*
X14221782Y45566051D01*
X14224878Y45500000D01*
X14232831Y45329317D01*
X14241182Y45147538D01*
X14249598Y44962103D01*
X14257744Y44780450D01*
X14265286Y44610018D01*
X14271892Y44458246D01*
X14276670Y44345925D01*
X14296590Y43870164D01*
X14251014Y43777010D01*
X14193744Y43690402D01*
X14113631Y43610705D01*
X14020452Y43546956D01*
X13981484Y43527847D01*
X13847216Y43482355D01*
X13703167Y43455474D01*
X13561685Y43448947D01*
X13476493Y43456517D01*
X13347024Y43487979D01*
X13227617Y43539115D01*
X13124138Y43606289D01*
X13042452Y43685870D01*
X12998414Y43752689D01*
X12972780Y43833047D01*
X12966823Y43925993D01*
X12980475Y44018064D01*
X13000041Y44071500D01*
X13060847Y44161835D01*
X13148119Y44241820D01*
X13256545Y44308776D01*
X13380812Y44360020D01*
X13515609Y44392872D01*
X13655623Y44404650D01*
X13660112Y44404649D01*
X13772843Y44394246D01*
X13893239Y44366466D01*
X14004640Y44325552D01*
X14040496Y44307798D01*
X14086838Y44285481D01*
X14117780Y44276084D01*
X14126886Y44279790D01*
X14126127Y44298775D01*
X14123974Y44347850D01*
X14120545Y44424448D01*
X14115955Y44526003D01*
X14110322Y44649949D01*
X14103763Y44793721D01*
X14096395Y44954753D01*
X14088333Y45130479D01*
X14079697Y45318333D01*
X14070601Y45515748D01*
X14069820Y45532690D01*
X14058135Y45785872D01*
X14047902Y46008483D01*
X14039102Y46202608D01*
X14031717Y46370331D01*
X14025729Y46513740D01*
X14021119Y46634917D01*
X14017869Y46735950D01*
X14015961Y46818923D01*
X14015378Y46885922D01*
X14016099Y46939031D01*
X14018108Y46980337D01*
X14021387Y47011924D01*
X14025916Y47035877D01*
X14031677Y47054283D01*
X14038654Y47069226D01*
X14046826Y47082791D01*
X14056150Y47097024D01*
X14095784Y47145586D01*
X14142821Y47186650D01*
X14158306Y47196469D01*
X14186383Y47209922D01*
X14240961Y47234248D01*
X14318322Y47267855D01*
X14414747Y47309152D01*
X14526516Y47356547D01*
X14649912Y47408448D01*
X14781216Y47463264D01*
X14797168Y47469897D01*
X14937995Y47528469D01*
X15079035Y47587225D01*
X15215126Y47644005D01*
X15341102Y47696651D01*
X15451798Y47743004D01*
X15542050Y47780908D01*
X15600884Y47805740D01*
X15729146Y47859458D01*
X15831159Y47900134D01*
X15910409Y47928303D01*
X15970384Y47944502D01*
X16014569Y47949267D01*
X16046453Y47943134D01*
G37*
%TD*%
D14*
X27940000Y2540000D03*
X30480000Y2540000D03*
X33020000Y2540000D03*
X35560000Y2540000D03*
X38100000Y2540000D03*
X40640000Y2540000D03*
X43180000Y2540000D03*
X45720000Y2540000D03*
X50800000Y2540000D03*
X53340000Y2540000D03*
X55880000Y2540000D03*
X58420000Y2540000D03*
X60960000Y2540000D03*
X63500000Y2540000D03*
X18796000Y50800000D03*
X21336000Y50800000D03*
X23876000Y50800000D03*
X26416000Y50800000D03*
X28956000Y50800000D03*
X31496000Y50800000D03*
X34036000Y50800000D03*
X36576000Y50800000D03*
X39116000Y50800000D03*
X41656000Y50800000D03*
X45720000Y50800000D03*
X48260000Y50800000D03*
X50800000Y50800000D03*
X53340000Y50800000D03*
X55880000Y50800000D03*
X58420000Y50800000D03*
X60960000Y50800000D03*
X63500000Y50800000D03*
X24000000Y11000000D03*
X24000000Y17500000D03*
X28500000Y17500000D03*
X28500000Y11000000D03*
X40000000Y11000000D03*
X40000000Y17500000D03*
X44500000Y17500000D03*
X44500000Y11000000D03*
X16000000Y11000000D03*
X16000000Y17500000D03*
X20500000Y17500000D03*
X20500000Y11000000D03*
X58000000Y21840000D03*
X58000000Y32000000D03*
X32000000Y11000000D03*
X32000000Y17500000D03*
X36500000Y17500000D03*
X36500000Y11000000D03*
X15240000Y50800000D03*
X51000000Y41500000D03*
X61000000Y41500000D03*
X13970000Y2540000D03*
X66040000Y35560000D03*
X66040000Y7620000D03*
X22000000Y34160000D03*
X22000000Y24000000D03*
X38500000Y34160000D03*
X38500000Y24000000D03*
X30500000Y34160000D03*
X30500000Y24000000D03*
M02*
