%TF.GenerationSoftware,KiCad,Pcbnew,8.0.0*%
%TF.CreationDate,2024-04-21T11:23:52-04:00*%
%TF.ProjectId,7_keyboard_instrument,375f6b65-7962-46f6-9172-645f696e7374,rev?*%
%TF.SameCoordinates,Original*%
%TF.FileFunction,Legend,Top*%
%TF.FilePolarity,Positive*%
%FSLAX46Y46*%
G04 Gerber Fmt 4.6, Leading zero omitted, Abs format (unit mm)*
G04 Created by KiCad (PCBNEW 8.0.0) date 2024-04-21 11:23:52*
%MOMM*%
%LPD*%
G01*
G04 APERTURE LIST*
%ADD10C,0.150000*%
%ADD11C,0.100000*%
%ADD12C,0.120000*%
%ADD13C,0.000000*%
%ADD14C,0.350000*%
G04 APERTURE END LIST*
D10*
X120000000Y-63500000D02*
X124500000Y-63500000D01*
X124500000Y-78500000D01*
X120000000Y-78500000D01*
X120000000Y-63500000D01*
G36*
X120000000Y-63500000D02*
G01*
X124500000Y-63500000D01*
X124500000Y-78500000D01*
X120000000Y-78500000D01*
X120000000Y-63500000D01*
G37*
X136000000Y-63500000D02*
X140500000Y-63500000D01*
X140500000Y-78500000D01*
X136000000Y-78500000D01*
X136000000Y-63500000D01*
G36*
X136000000Y-63500000D02*
G01*
X140500000Y-63500000D01*
X140500000Y-78500000D01*
X136000000Y-78500000D01*
X136000000Y-63500000D01*
G37*
X119500000Y-79000000D02*
X122000000Y-79000000D01*
X122000000Y-91000000D01*
X114500000Y-91000000D01*
X114500000Y-63500000D01*
X119500000Y-63500000D01*
X119500000Y-79000000D01*
X128000000Y-63500000D02*
X132500000Y-63500000D01*
X132500000Y-78500000D01*
X128000000Y-78500000D01*
X128000000Y-63500000D01*
G36*
X128000000Y-63500000D02*
G01*
X132500000Y-63500000D01*
X132500000Y-78500000D01*
X128000000Y-78500000D01*
X128000000Y-63500000D01*
G37*
X135500000Y-79000000D02*
X138000000Y-79000000D01*
X138000000Y-91000000D01*
X130500000Y-91000000D01*
X130500000Y-79000000D01*
X133000000Y-79000000D01*
X133000000Y-63500000D01*
X135500000Y-63500000D01*
X135500000Y-79000000D01*
X146000000Y-91000000D02*
X138500000Y-91000000D01*
X138500000Y-79000000D01*
X141000000Y-79000000D01*
X141000000Y-63500000D01*
X146000000Y-63500000D01*
X146000000Y-91000000D01*
X127500000Y-79000000D02*
X130000000Y-79000000D01*
X130000000Y-91000000D01*
X122500000Y-91000000D01*
X122500000Y-79000000D01*
X125000000Y-79000000D01*
X125000000Y-63500000D01*
X127500000Y-63500000D01*
X127500000Y-79000000D01*
D11*
X123909800Y-90333332D02*
X123957419Y-90190475D01*
X123957419Y-90190475D02*
X123957419Y-89952380D01*
X123957419Y-89952380D02*
X123909800Y-89857142D01*
X123909800Y-89857142D02*
X123862180Y-89809523D01*
X123862180Y-89809523D02*
X123766942Y-89761904D01*
X123766942Y-89761904D02*
X123671704Y-89761904D01*
X123671704Y-89761904D02*
X123576466Y-89809523D01*
X123576466Y-89809523D02*
X123528847Y-89857142D01*
X123528847Y-89857142D02*
X123481228Y-89952380D01*
X123481228Y-89952380D02*
X123433609Y-90142856D01*
X123433609Y-90142856D02*
X123385990Y-90238094D01*
X123385990Y-90238094D02*
X123338371Y-90285713D01*
X123338371Y-90285713D02*
X123243133Y-90333332D01*
X123243133Y-90333332D02*
X123147895Y-90333332D01*
X123147895Y-90333332D02*
X123052657Y-90285713D01*
X123052657Y-90285713D02*
X123005038Y-90238094D01*
X123005038Y-90238094D02*
X122957419Y-90142856D01*
X122957419Y-90142856D02*
X122957419Y-89904761D01*
X122957419Y-89904761D02*
X123005038Y-89761904D01*
X122957419Y-89428570D02*
X123957419Y-89190475D01*
X123957419Y-89190475D02*
X123243133Y-88999999D01*
X123243133Y-88999999D02*
X123957419Y-88809523D01*
X123957419Y-88809523D02*
X122957419Y-88571428D01*
X123052657Y-88238094D02*
X123005038Y-88190475D01*
X123005038Y-88190475D02*
X122957419Y-88095237D01*
X122957419Y-88095237D02*
X122957419Y-87857142D01*
X122957419Y-87857142D02*
X123005038Y-87761904D01*
X123005038Y-87761904D02*
X123052657Y-87714285D01*
X123052657Y-87714285D02*
X123147895Y-87666666D01*
X123147895Y-87666666D02*
X123243133Y-87666666D01*
X123243133Y-87666666D02*
X123385990Y-87714285D01*
X123385990Y-87714285D02*
X123957419Y-88285713D01*
X123957419Y-88285713D02*
X123957419Y-87666666D01*
X139909800Y-90333332D02*
X139957419Y-90190475D01*
X139957419Y-90190475D02*
X139957419Y-89952380D01*
X139957419Y-89952380D02*
X139909800Y-89857142D01*
X139909800Y-89857142D02*
X139862180Y-89809523D01*
X139862180Y-89809523D02*
X139766942Y-89761904D01*
X139766942Y-89761904D02*
X139671704Y-89761904D01*
X139671704Y-89761904D02*
X139576466Y-89809523D01*
X139576466Y-89809523D02*
X139528847Y-89857142D01*
X139528847Y-89857142D02*
X139481228Y-89952380D01*
X139481228Y-89952380D02*
X139433609Y-90142856D01*
X139433609Y-90142856D02*
X139385990Y-90238094D01*
X139385990Y-90238094D02*
X139338371Y-90285713D01*
X139338371Y-90285713D02*
X139243133Y-90333332D01*
X139243133Y-90333332D02*
X139147895Y-90333332D01*
X139147895Y-90333332D02*
X139052657Y-90285713D01*
X139052657Y-90285713D02*
X139005038Y-90238094D01*
X139005038Y-90238094D02*
X138957419Y-90142856D01*
X138957419Y-90142856D02*
X138957419Y-89904761D01*
X138957419Y-89904761D02*
X139005038Y-89761904D01*
X138957419Y-89428570D02*
X139957419Y-89190475D01*
X139957419Y-89190475D02*
X139243133Y-88999999D01*
X139243133Y-88999999D02*
X139957419Y-88809523D01*
X139957419Y-88809523D02*
X138957419Y-88571428D01*
X139290752Y-87761904D02*
X139957419Y-87761904D01*
X138909800Y-87999999D02*
X139624085Y-88238094D01*
X139624085Y-88238094D02*
X139624085Y-87619047D01*
X115909800Y-90333332D02*
X115957419Y-90190475D01*
X115957419Y-90190475D02*
X115957419Y-89952380D01*
X115957419Y-89952380D02*
X115909800Y-89857142D01*
X115909800Y-89857142D02*
X115862180Y-89809523D01*
X115862180Y-89809523D02*
X115766942Y-89761904D01*
X115766942Y-89761904D02*
X115671704Y-89761904D01*
X115671704Y-89761904D02*
X115576466Y-89809523D01*
X115576466Y-89809523D02*
X115528847Y-89857142D01*
X115528847Y-89857142D02*
X115481228Y-89952380D01*
X115481228Y-89952380D02*
X115433609Y-90142856D01*
X115433609Y-90142856D02*
X115385990Y-90238094D01*
X115385990Y-90238094D02*
X115338371Y-90285713D01*
X115338371Y-90285713D02*
X115243133Y-90333332D01*
X115243133Y-90333332D02*
X115147895Y-90333332D01*
X115147895Y-90333332D02*
X115052657Y-90285713D01*
X115052657Y-90285713D02*
X115005038Y-90238094D01*
X115005038Y-90238094D02*
X114957419Y-90142856D01*
X114957419Y-90142856D02*
X114957419Y-89904761D01*
X114957419Y-89904761D02*
X115005038Y-89761904D01*
X114957419Y-89428570D02*
X115957419Y-89190475D01*
X115957419Y-89190475D02*
X115243133Y-88999999D01*
X115243133Y-88999999D02*
X115957419Y-88809523D01*
X115957419Y-88809523D02*
X114957419Y-88571428D01*
X115957419Y-87666666D02*
X115957419Y-88238094D01*
X115957419Y-87952380D02*
X114957419Y-87952380D01*
X114957419Y-87952380D02*
X115100276Y-88047618D01*
X115100276Y-88047618D02*
X115195514Y-88142856D01*
X115195514Y-88142856D02*
X115243133Y-88238094D01*
D10*
X156084819Y-73246666D02*
X155608628Y-73579999D01*
X156084819Y-73818094D02*
X155084819Y-73818094D01*
X155084819Y-73818094D02*
X155084819Y-73437142D01*
X155084819Y-73437142D02*
X155132438Y-73341904D01*
X155132438Y-73341904D02*
X155180057Y-73294285D01*
X155180057Y-73294285D02*
X155275295Y-73246666D01*
X155275295Y-73246666D02*
X155418152Y-73246666D01*
X155418152Y-73246666D02*
X155513390Y-73294285D01*
X155513390Y-73294285D02*
X155561009Y-73341904D01*
X155561009Y-73341904D02*
X155608628Y-73437142D01*
X155608628Y-73437142D02*
X155608628Y-73818094D01*
X155418152Y-72389523D02*
X156084819Y-72389523D01*
X155037200Y-72627618D02*
X155751485Y-72865713D01*
X155751485Y-72865713D02*
X155751485Y-72246666D01*
X160824819Y-74246666D02*
X160824819Y-74818094D01*
X160824819Y-74532380D02*
X159824819Y-74532380D01*
X159824819Y-74532380D02*
X159967676Y-74627618D01*
X159967676Y-74627618D02*
X160062914Y-74722856D01*
X160062914Y-74722856D02*
X160110533Y-74818094D01*
X159824819Y-73627618D02*
X159824819Y-73532380D01*
X159824819Y-73532380D02*
X159872438Y-73437142D01*
X159872438Y-73437142D02*
X159920057Y-73389523D01*
X159920057Y-73389523D02*
X160015295Y-73341904D01*
X160015295Y-73341904D02*
X160205771Y-73294285D01*
X160205771Y-73294285D02*
X160443866Y-73294285D01*
X160443866Y-73294285D02*
X160634342Y-73341904D01*
X160634342Y-73341904D02*
X160729580Y-73389523D01*
X160729580Y-73389523D02*
X160777200Y-73437142D01*
X160777200Y-73437142D02*
X160824819Y-73532380D01*
X160824819Y-73532380D02*
X160824819Y-73627618D01*
X160824819Y-73627618D02*
X160777200Y-73722856D01*
X160777200Y-73722856D02*
X160729580Y-73770475D01*
X160729580Y-73770475D02*
X160634342Y-73818094D01*
X160634342Y-73818094D02*
X160443866Y-73865713D01*
X160443866Y-73865713D02*
X160205771Y-73865713D01*
X160205771Y-73865713D02*
X160015295Y-73818094D01*
X160015295Y-73818094D02*
X159920057Y-73770475D01*
X159920057Y-73770475D02*
X159872438Y-73722856D01*
X159872438Y-73722856D02*
X159824819Y-73627618D01*
X160824819Y-72865713D02*
X159824819Y-72865713D01*
X160443866Y-72770475D02*
X160824819Y-72484761D01*
X160158152Y-72484761D02*
X160539104Y-72865713D01*
X160824819Y-72103808D02*
X160824819Y-71865713D01*
X160824819Y-71865713D02*
X160634342Y-71865713D01*
X160634342Y-71865713D02*
X160586723Y-71960951D01*
X160586723Y-71960951D02*
X160491485Y-72056189D01*
X160491485Y-72056189D02*
X160348628Y-72103808D01*
X160348628Y-72103808D02*
X160110533Y-72103808D01*
X160110533Y-72103808D02*
X159967676Y-72056189D01*
X159967676Y-72056189D02*
X159872438Y-71960951D01*
X159872438Y-71960951D02*
X159824819Y-71818094D01*
X159824819Y-71818094D02*
X159824819Y-71627618D01*
X159824819Y-71627618D02*
X159872438Y-71484761D01*
X159872438Y-71484761D02*
X159967676Y-71389523D01*
X159967676Y-71389523D02*
X160110533Y-71341904D01*
X160110533Y-71341904D02*
X160348628Y-71341904D01*
X160348628Y-71341904D02*
X160491485Y-71389523D01*
X160491485Y-71389523D02*
X160586723Y-71484761D01*
X160586723Y-71484761D02*
X160634342Y-71579999D01*
X160634342Y-71579999D02*
X160824819Y-71579999D01*
X160824819Y-71579999D02*
X160824819Y-71341904D01*
D11*
X131909800Y-90333332D02*
X131957419Y-90190475D01*
X131957419Y-90190475D02*
X131957419Y-89952380D01*
X131957419Y-89952380D02*
X131909800Y-89857142D01*
X131909800Y-89857142D02*
X131862180Y-89809523D01*
X131862180Y-89809523D02*
X131766942Y-89761904D01*
X131766942Y-89761904D02*
X131671704Y-89761904D01*
X131671704Y-89761904D02*
X131576466Y-89809523D01*
X131576466Y-89809523D02*
X131528847Y-89857142D01*
X131528847Y-89857142D02*
X131481228Y-89952380D01*
X131481228Y-89952380D02*
X131433609Y-90142856D01*
X131433609Y-90142856D02*
X131385990Y-90238094D01*
X131385990Y-90238094D02*
X131338371Y-90285713D01*
X131338371Y-90285713D02*
X131243133Y-90333332D01*
X131243133Y-90333332D02*
X131147895Y-90333332D01*
X131147895Y-90333332D02*
X131052657Y-90285713D01*
X131052657Y-90285713D02*
X131005038Y-90238094D01*
X131005038Y-90238094D02*
X130957419Y-90142856D01*
X130957419Y-90142856D02*
X130957419Y-89904761D01*
X130957419Y-89904761D02*
X131005038Y-89761904D01*
X130957419Y-89428570D02*
X131957419Y-89190475D01*
X131957419Y-89190475D02*
X131243133Y-88999999D01*
X131243133Y-88999999D02*
X131957419Y-88809523D01*
X131957419Y-88809523D02*
X130957419Y-88571428D01*
X130957419Y-88285713D02*
X130957419Y-87666666D01*
X130957419Y-87666666D02*
X131338371Y-87999999D01*
X131338371Y-87999999D02*
X131338371Y-87857142D01*
X131338371Y-87857142D02*
X131385990Y-87761904D01*
X131385990Y-87761904D02*
X131433609Y-87714285D01*
X131433609Y-87714285D02*
X131528847Y-87666666D01*
X131528847Y-87666666D02*
X131766942Y-87666666D01*
X131766942Y-87666666D02*
X131862180Y-87714285D01*
X131862180Y-87714285D02*
X131909800Y-87761904D01*
X131909800Y-87761904D02*
X131957419Y-87857142D01*
X131957419Y-87857142D02*
X131957419Y-88142856D01*
X131957419Y-88142856D02*
X131909800Y-88238094D01*
X131909800Y-88238094D02*
X131862180Y-88285713D01*
X155357142Y-58457419D02*
X154880952Y-58457419D01*
X154880952Y-58457419D02*
X154880952Y-57457419D01*
X155642857Y-58409800D02*
X155785714Y-58457419D01*
X155785714Y-58457419D02*
X156023809Y-58457419D01*
X156023809Y-58457419D02*
X156119047Y-58409800D01*
X156119047Y-58409800D02*
X156166666Y-58362180D01*
X156166666Y-58362180D02*
X156214285Y-58266942D01*
X156214285Y-58266942D02*
X156214285Y-58171704D01*
X156214285Y-58171704D02*
X156166666Y-58076466D01*
X156166666Y-58076466D02*
X156119047Y-58028847D01*
X156119047Y-58028847D02*
X156023809Y-57981228D01*
X156023809Y-57981228D02*
X155833333Y-57933609D01*
X155833333Y-57933609D02*
X155738095Y-57885990D01*
X155738095Y-57885990D02*
X155690476Y-57838371D01*
X155690476Y-57838371D02*
X155642857Y-57743133D01*
X155642857Y-57743133D02*
X155642857Y-57647895D01*
X155642857Y-57647895D02*
X155690476Y-57552657D01*
X155690476Y-57552657D02*
X155738095Y-57505038D01*
X155738095Y-57505038D02*
X155833333Y-57457419D01*
X155833333Y-57457419D02*
X156071428Y-57457419D01*
X156071428Y-57457419D02*
X156214285Y-57505038D01*
X157166666Y-58457419D02*
X156595238Y-58457419D01*
X156880952Y-58457419D02*
X156880952Y-57457419D01*
X156880952Y-57457419D02*
X156785714Y-57600276D01*
X156785714Y-57600276D02*
X156690476Y-57695514D01*
X156690476Y-57695514D02*
X156595238Y-57743133D01*
D12*
%TO.C,J1*%
X126610000Y-96130000D02*
X127940000Y-96130000D01*
X126610000Y-97460000D02*
X126610000Y-96130000D01*
X129210000Y-96130000D02*
X147050000Y-96130000D01*
X129210000Y-98790000D02*
X129210000Y-96130000D01*
X129210000Y-98790000D02*
X147050000Y-98790000D01*
X147050000Y-98790000D02*
X147050000Y-96130000D01*
%TO.C,J3*%
X149470000Y-96130000D02*
X150800000Y-96130000D01*
X149470000Y-97460000D02*
X149470000Y-96130000D01*
X152070000Y-96130000D02*
X164830000Y-96130000D01*
X152070000Y-98790000D02*
X152070000Y-96130000D01*
X152070000Y-98790000D02*
X164830000Y-98790000D01*
X164830000Y-98790000D02*
X164830000Y-96130000D01*
%TO.C,J2*%
X117466000Y-47870000D02*
X118796000Y-47870000D01*
X117466000Y-49200000D02*
X117466000Y-47870000D01*
X120066000Y-47870000D02*
X142986000Y-47870000D01*
X120066000Y-50530000D02*
X120066000Y-47870000D01*
X120066000Y-50530000D02*
X142986000Y-50530000D01*
X142986000Y-50530000D02*
X142986000Y-47870000D01*
%TO.C,J4*%
X144390000Y-47870000D02*
X145720000Y-47870000D01*
X144390000Y-49200000D02*
X144390000Y-47870000D01*
X146990000Y-47870000D02*
X164830000Y-47870000D01*
X146990000Y-50530000D02*
X146990000Y-47870000D01*
X146990000Y-50530000D02*
X164830000Y-50530000D01*
X164830000Y-50530000D02*
X164830000Y-47870000D01*
D13*
%TO.C,G\u002A\u002A\u002A*%
G36*
X120924474Y-55904627D02*
G01*
X121055028Y-55938656D01*
X121171613Y-55999035D01*
X121271623Y-56083847D01*
X121352453Y-56191173D01*
X121411497Y-56319094D01*
X121446150Y-56465693D01*
X121452489Y-56527478D01*
X121455499Y-56586788D01*
X121455795Y-56629852D01*
X121453399Y-56649613D01*
X121452091Y-56649884D01*
X121440286Y-56632097D01*
X121418378Y-56593735D01*
X121392571Y-56545847D01*
X121329127Y-56438596D01*
X121264593Y-56358413D01*
X121194201Y-56299882D01*
X121156661Y-56277744D01*
X121108247Y-56254951D01*
X121062857Y-56241553D01*
X121008603Y-56235189D01*
X120933848Y-56233498D01*
X120858647Y-56234978D01*
X120803331Y-56241394D01*
X120755185Y-56255274D01*
X120701493Y-56279144D01*
X120699733Y-56280007D01*
X120649474Y-56306931D01*
X120612320Y-56331033D01*
X120597225Y-56345835D01*
X120602468Y-56364321D01*
X120620538Y-56408925D01*
X120649951Y-56476373D01*
X120689226Y-56563393D01*
X120736879Y-56666711D01*
X120791428Y-56783053D01*
X120851391Y-56909146D01*
X120868115Y-56944018D01*
X120944367Y-57104060D01*
X121009463Y-57243458D01*
X121062718Y-57360659D01*
X121103444Y-57454109D01*
X121130955Y-57522254D01*
X121144566Y-57563541D01*
X121145973Y-57572848D01*
X121131945Y-57645504D01*
X121094260Y-57723615D01*
X121038072Y-57797193D01*
X121021607Y-57813833D01*
X120936421Y-57877968D01*
X120838156Y-57923759D01*
X120734725Y-57949382D01*
X120634040Y-57953013D01*
X120544012Y-57932830D01*
X120530586Y-57927016D01*
X120459129Y-57878473D01*
X120415021Y-57815011D01*
X120398671Y-57740230D01*
X120410492Y-57657731D01*
X120450893Y-57571115D01*
X120484619Y-57524045D01*
X120570060Y-57443770D01*
X120675365Y-57388390D01*
X120797694Y-57359282D01*
X120830594Y-57356272D01*
X120888379Y-57351011D01*
X120930827Y-57344187D01*
X120949857Y-57337156D01*
X120950193Y-57336205D01*
X120943332Y-57319279D01*
X120923732Y-57276047D01*
X120892870Y-57209641D01*
X120852221Y-57123194D01*
X120803260Y-57019837D01*
X120747465Y-56902703D01*
X120686310Y-56774924D01*
X120654759Y-56709217D01*
X120591516Y-56576716D01*
X120533166Y-56452658D01*
X120481166Y-56340275D01*
X120436974Y-56242801D01*
X120402047Y-56163470D01*
X120377842Y-56105514D01*
X120365817Y-56072167D01*
X120364794Y-56065876D01*
X120383643Y-56039692D01*
X120426950Y-56008548D01*
X120487669Y-55976204D01*
X120558753Y-55946422D01*
X120631880Y-55923295D01*
X120782556Y-55898867D01*
X120924474Y-55904627D01*
G37*
G36*
X125624431Y-56999795D02*
G01*
X125661514Y-57008524D01*
X125859401Y-57071795D01*
X126040525Y-57157620D01*
X126202400Y-57263881D01*
X126342539Y-57388460D01*
X126458456Y-57529241D01*
X126547664Y-57684106D01*
X126593720Y-57802381D01*
X126612595Y-57871990D01*
X126623634Y-57941638D01*
X126628337Y-58023596D01*
X126628714Y-58088417D01*
X126612877Y-58284066D01*
X126567480Y-58466890D01*
X126491513Y-58639987D01*
X126403031Y-58780564D01*
X126369616Y-58823986D01*
X126328547Y-58873041D01*
X126284768Y-58922415D01*
X126243223Y-58966794D01*
X126208856Y-59000862D01*
X126186611Y-59019306D01*
X126180855Y-59019394D01*
X126185591Y-59001601D01*
X126198115Y-58959715D01*
X126216291Y-58900790D01*
X126229901Y-58857399D01*
X126279169Y-58674208D01*
X126304411Y-58512930D01*
X126305657Y-58373343D01*
X126299243Y-58322363D01*
X126258405Y-58178254D01*
X126188583Y-58043616D01*
X126092879Y-57921669D01*
X125974397Y-57815638D01*
X125836240Y-57728743D01*
X125681511Y-57664207D01*
X125658621Y-57657115D01*
X125600821Y-57642919D01*
X125543894Y-57633745D01*
X125496400Y-57630378D01*
X125466896Y-57633598D01*
X125461390Y-57639084D01*
X125456675Y-57656266D01*
X125443191Y-57701457D01*
X125421928Y-57771468D01*
X125393878Y-57863109D01*
X125360031Y-57973190D01*
X125321378Y-58098521D01*
X125278911Y-58235914D01*
X125233619Y-58382177D01*
X125186494Y-58534123D01*
X125138527Y-58688560D01*
X125090708Y-58842300D01*
X125044028Y-58992153D01*
X124999479Y-59134928D01*
X124958051Y-59267437D01*
X124920734Y-59386490D01*
X124888521Y-59488898D01*
X124862401Y-59571469D01*
X124843366Y-59631016D01*
X124832406Y-59664348D01*
X124831021Y-59668275D01*
X124802978Y-59720294D01*
X124758328Y-59777901D01*
X124727188Y-59809990D01*
X124628969Y-59879995D01*
X124511473Y-59926286D01*
X124378608Y-59948198D01*
X124234284Y-59945060D01*
X124091532Y-59918639D01*
X123953453Y-59870430D01*
X123830419Y-59803720D01*
X123725647Y-59721794D01*
X123642354Y-59627942D01*
X123583755Y-59525449D01*
X123553067Y-59417603D01*
X123549194Y-59364395D01*
X123563172Y-59260375D01*
X123603179Y-59170911D01*
X123665725Y-59096509D01*
X123747324Y-59037678D01*
X123844485Y-58994925D01*
X123953720Y-58968758D01*
X124071540Y-58959685D01*
X124194457Y-58968213D01*
X124318982Y-58994850D01*
X124441626Y-59040104D01*
X124558900Y-59104483D01*
X124667315Y-59188493D01*
X124679544Y-59199898D01*
X124725823Y-59242998D01*
X124762237Y-59275141D01*
X124783142Y-59291422D01*
X124785916Y-59292377D01*
X124791458Y-59276374D01*
X124805762Y-59231995D01*
X124827931Y-59162097D01*
X124857070Y-59069532D01*
X124892284Y-58957159D01*
X124932678Y-58827830D01*
X124977355Y-58684402D01*
X125025420Y-58529730D01*
X125053597Y-58438897D01*
X125127723Y-58199781D01*
X125192806Y-57989921D01*
X125249508Y-57807355D01*
X125298487Y-57650122D01*
X125340404Y-57516262D01*
X125375918Y-57403812D01*
X125405690Y-57310811D01*
X125430379Y-57235298D01*
X125450646Y-57175313D01*
X125467150Y-57128893D01*
X125480551Y-57094078D01*
X125491510Y-57068905D01*
X125500685Y-57051415D01*
X125508737Y-57039646D01*
X125516327Y-57031636D01*
X125524113Y-57025424D01*
X125530870Y-57020473D01*
X125559751Y-57001655D01*
X125586787Y-56995142D01*
X125624431Y-56999795D01*
G37*
G36*
X124046453Y-55056866D02*
G01*
X124069522Y-55073362D01*
X124087263Y-55099684D01*
X124096014Y-55118158D01*
X124100657Y-55136200D01*
X124105564Y-55170558D01*
X124110825Y-55222795D01*
X124116531Y-55294472D01*
X124122773Y-55387150D01*
X124129642Y-55502391D01*
X124137229Y-55641757D01*
X124145625Y-55806809D01*
X124154920Y-55999108D01*
X124165205Y-56220216D01*
X124176572Y-56471695D01*
X124182323Y-56601030D01*
X124191670Y-56815717D01*
X124200351Y-57022027D01*
X124208278Y-57217489D01*
X124215366Y-57399630D01*
X124221528Y-57565979D01*
X124226677Y-57714063D01*
X124230727Y-57841413D01*
X124233591Y-57945554D01*
X124235184Y-58024017D01*
X124235417Y-58074329D01*
X124234531Y-58092865D01*
X124201874Y-58187092D01*
X124140615Y-58277139D01*
X124054813Y-58357457D01*
X124025838Y-58378191D01*
X123929773Y-58434961D01*
X123833648Y-58473552D01*
X123726854Y-58497248D01*
X123602810Y-58509120D01*
X123445939Y-58507002D01*
X123308080Y-58481701D01*
X123183997Y-58431960D01*
X123118149Y-58392675D01*
X123021285Y-58312206D01*
X122954505Y-58222486D01*
X122918203Y-58126243D01*
X122912768Y-58026207D01*
X122938593Y-57925105D01*
X122996068Y-57825667D01*
X123030815Y-57783877D01*
X123129152Y-57699355D01*
X123248174Y-57634499D01*
X123381866Y-57590110D01*
X123524216Y-57566989D01*
X123669210Y-57565936D01*
X123810837Y-57587751D01*
X123943082Y-57633237D01*
X123988647Y-57656346D01*
X124031108Y-57677921D01*
X124060738Y-57688964D01*
X124068402Y-57688913D01*
X124069438Y-57671385D01*
X124068992Y-57624895D01*
X124067185Y-57553133D01*
X124064136Y-57459786D01*
X124059967Y-57348544D01*
X124054797Y-57223097D01*
X124048787Y-57087998D01*
X124041955Y-56938649D01*
X124035152Y-56788135D01*
X124028643Y-56642424D01*
X124022692Y-56507480D01*
X124017562Y-56389270D01*
X124013516Y-56293759D01*
X124011547Y-56245528D01*
X124007747Y-56159475D01*
X124003802Y-56086280D01*
X124000069Y-56031543D01*
X123996907Y-56000862D01*
X123995567Y-55996268D01*
X123979700Y-56002371D01*
X123936797Y-56019821D01*
X123869973Y-56047328D01*
X123782340Y-56083601D01*
X123677013Y-56127350D01*
X123557104Y-56177284D01*
X123425727Y-56232114D01*
X123340218Y-56267860D01*
X123195435Y-56328383D01*
X123053562Y-56387620D01*
X122918857Y-56443797D01*
X122795577Y-56495141D01*
X122687981Y-56539880D01*
X122600327Y-56576241D01*
X122536872Y-56602450D01*
X122519305Y-56609660D01*
X122411978Y-56653661D01*
X122331162Y-56687320D01*
X122273103Y-56712647D01*
X122234045Y-56731650D01*
X122210232Y-56746338D01*
X122197909Y-56758718D01*
X122193320Y-56770800D01*
X122192707Y-56784329D01*
X122193521Y-56808329D01*
X122195722Y-56861338D01*
X122199145Y-56939711D01*
X122203626Y-57039803D01*
X122209002Y-57157970D01*
X122215108Y-57290566D01*
X122221782Y-57433949D01*
X122224878Y-57500000D01*
X122232831Y-57670683D01*
X122241182Y-57852462D01*
X122249598Y-58037897D01*
X122257744Y-58219550D01*
X122265286Y-58389982D01*
X122271892Y-58541754D01*
X122276670Y-58654075D01*
X122296590Y-59129836D01*
X122251014Y-59222990D01*
X122193744Y-59309598D01*
X122113631Y-59389295D01*
X122020452Y-59453044D01*
X121981484Y-59472153D01*
X121847216Y-59517645D01*
X121703167Y-59544526D01*
X121561685Y-59551053D01*
X121476493Y-59543483D01*
X121347024Y-59512021D01*
X121227617Y-59460885D01*
X121124138Y-59393711D01*
X121042452Y-59314130D01*
X120998414Y-59247311D01*
X120972780Y-59166953D01*
X120966823Y-59074007D01*
X120980475Y-58981936D01*
X121000041Y-58928500D01*
X121060847Y-58838165D01*
X121148119Y-58758180D01*
X121256545Y-58691224D01*
X121380812Y-58639980D01*
X121515609Y-58607128D01*
X121655623Y-58595350D01*
X121660112Y-58595351D01*
X121772843Y-58605754D01*
X121893239Y-58633534D01*
X122004640Y-58674448D01*
X122040496Y-58692202D01*
X122086838Y-58714519D01*
X122117780Y-58723916D01*
X122126886Y-58720210D01*
X122126127Y-58701225D01*
X122123974Y-58652150D01*
X122120545Y-58575552D01*
X122115955Y-58473997D01*
X122110322Y-58350051D01*
X122103763Y-58206279D01*
X122096395Y-58045247D01*
X122088333Y-57869521D01*
X122079697Y-57681667D01*
X122070601Y-57484252D01*
X122069820Y-57467310D01*
X122058135Y-57214128D01*
X122047902Y-56991517D01*
X122039102Y-56797392D01*
X122031717Y-56629669D01*
X122025729Y-56486260D01*
X122021119Y-56365083D01*
X122017869Y-56264050D01*
X122015961Y-56181077D01*
X122015378Y-56114078D01*
X122016099Y-56060969D01*
X122018108Y-56019663D01*
X122021387Y-55988076D01*
X122025916Y-55964123D01*
X122031677Y-55945717D01*
X122038654Y-55930774D01*
X122046826Y-55917209D01*
X122056150Y-55902976D01*
X122095784Y-55854414D01*
X122142821Y-55813350D01*
X122158306Y-55803531D01*
X122186383Y-55790078D01*
X122240961Y-55765752D01*
X122318322Y-55732145D01*
X122414747Y-55690848D01*
X122526516Y-55643453D01*
X122649912Y-55591552D01*
X122781216Y-55536736D01*
X122797168Y-55530103D01*
X122937995Y-55471531D01*
X123079035Y-55412775D01*
X123215126Y-55355995D01*
X123341102Y-55303349D01*
X123451798Y-55256996D01*
X123542050Y-55219092D01*
X123600884Y-55194260D01*
X123729146Y-55140542D01*
X123831159Y-55099866D01*
X123910409Y-55071697D01*
X123970384Y-55055498D01*
X124014569Y-55050733D01*
X124046453Y-55056866D01*
G37*
D12*
%TO.C,R4*%
X156630000Y-69810000D02*
X156630000Y-76350000D01*
X156630000Y-76350000D02*
X159370000Y-76350000D01*
X158000000Y-69040000D02*
X158000000Y-69810000D01*
X158000000Y-77120000D02*
X158000000Y-76350000D01*
X159370000Y-69810000D02*
X156630000Y-69810000D01*
X159370000Y-76350000D02*
X159370000Y-69810000D01*
D11*
%TO.C,LS1*%
X162500000Y-58500000D02*
G75*
G02*
X149500000Y-58500000I-6500000J0D01*
G01*
X149500000Y-58500000D02*
G75*
G02*
X162500000Y-58500000I6500000J0D01*
G01*
D13*
%TO.C,G\u002A\u002A\u002A*%
G36*
X112924474Y-52904627D02*
G01*
X113055028Y-52938656D01*
X113171613Y-52999035D01*
X113271623Y-53083847D01*
X113352453Y-53191173D01*
X113411497Y-53319094D01*
X113446150Y-53465693D01*
X113452489Y-53527478D01*
X113455499Y-53586788D01*
X113455795Y-53629852D01*
X113453399Y-53649613D01*
X113452091Y-53649884D01*
X113440286Y-53632097D01*
X113418378Y-53593735D01*
X113392571Y-53545847D01*
X113329127Y-53438596D01*
X113264593Y-53358413D01*
X113194201Y-53299882D01*
X113156661Y-53277744D01*
X113108247Y-53254951D01*
X113062857Y-53241553D01*
X113008603Y-53235189D01*
X112933848Y-53233498D01*
X112858647Y-53234978D01*
X112803331Y-53241394D01*
X112755185Y-53255274D01*
X112701493Y-53279144D01*
X112699733Y-53280007D01*
X112649474Y-53306931D01*
X112612320Y-53331033D01*
X112597225Y-53345835D01*
X112602468Y-53364321D01*
X112620538Y-53408925D01*
X112649951Y-53476373D01*
X112689226Y-53563393D01*
X112736879Y-53666711D01*
X112791428Y-53783053D01*
X112851391Y-53909146D01*
X112868115Y-53944018D01*
X112944367Y-54104060D01*
X113009463Y-54243458D01*
X113062718Y-54360659D01*
X113103444Y-54454109D01*
X113130955Y-54522254D01*
X113144566Y-54563541D01*
X113145973Y-54572848D01*
X113131945Y-54645504D01*
X113094260Y-54723615D01*
X113038072Y-54797193D01*
X113021607Y-54813833D01*
X112936421Y-54877968D01*
X112838156Y-54923759D01*
X112734725Y-54949382D01*
X112634040Y-54953013D01*
X112544012Y-54932830D01*
X112530586Y-54927016D01*
X112459129Y-54878473D01*
X112415021Y-54815011D01*
X112398671Y-54740230D01*
X112410492Y-54657731D01*
X112450893Y-54571115D01*
X112484619Y-54524045D01*
X112570060Y-54443770D01*
X112675365Y-54388390D01*
X112797694Y-54359282D01*
X112830594Y-54356272D01*
X112888379Y-54351011D01*
X112930827Y-54344187D01*
X112949857Y-54337156D01*
X112950193Y-54336205D01*
X112943332Y-54319279D01*
X112923732Y-54276047D01*
X112892870Y-54209641D01*
X112852221Y-54123194D01*
X112803260Y-54019837D01*
X112747465Y-53902703D01*
X112686310Y-53774924D01*
X112654759Y-53709217D01*
X112591516Y-53576716D01*
X112533166Y-53452658D01*
X112481166Y-53340275D01*
X112436974Y-53242801D01*
X112402047Y-53163470D01*
X112377842Y-53105514D01*
X112365817Y-53072167D01*
X112364794Y-53065876D01*
X112383643Y-53039692D01*
X112426950Y-53008548D01*
X112487669Y-52976204D01*
X112558753Y-52946422D01*
X112631880Y-52923295D01*
X112782556Y-52898867D01*
X112924474Y-52904627D01*
G37*
G36*
X117624431Y-53999795D02*
G01*
X117661514Y-54008524D01*
X117859401Y-54071795D01*
X118040525Y-54157620D01*
X118202400Y-54263881D01*
X118342539Y-54388460D01*
X118458456Y-54529241D01*
X118547664Y-54684106D01*
X118593720Y-54802381D01*
X118612595Y-54871990D01*
X118623634Y-54941638D01*
X118628337Y-55023596D01*
X118628714Y-55088417D01*
X118612877Y-55284066D01*
X118567480Y-55466890D01*
X118491513Y-55639987D01*
X118403031Y-55780564D01*
X118369616Y-55823986D01*
X118328547Y-55873041D01*
X118284768Y-55922415D01*
X118243223Y-55966794D01*
X118208856Y-56000862D01*
X118186611Y-56019306D01*
X118180855Y-56019394D01*
X118185591Y-56001601D01*
X118198115Y-55959715D01*
X118216291Y-55900790D01*
X118229901Y-55857399D01*
X118279169Y-55674208D01*
X118304411Y-55512930D01*
X118305657Y-55373343D01*
X118299243Y-55322363D01*
X118258405Y-55178254D01*
X118188583Y-55043616D01*
X118092879Y-54921669D01*
X117974397Y-54815638D01*
X117836240Y-54728743D01*
X117681511Y-54664207D01*
X117658621Y-54657115D01*
X117600821Y-54642919D01*
X117543894Y-54633745D01*
X117496400Y-54630378D01*
X117466896Y-54633598D01*
X117461390Y-54639084D01*
X117456675Y-54656266D01*
X117443191Y-54701457D01*
X117421928Y-54771468D01*
X117393878Y-54863109D01*
X117360031Y-54973190D01*
X117321378Y-55098521D01*
X117278911Y-55235914D01*
X117233619Y-55382177D01*
X117186494Y-55534123D01*
X117138527Y-55688560D01*
X117090708Y-55842300D01*
X117044028Y-55992153D01*
X116999479Y-56134928D01*
X116958051Y-56267437D01*
X116920734Y-56386490D01*
X116888521Y-56488898D01*
X116862401Y-56571469D01*
X116843366Y-56631016D01*
X116832406Y-56664348D01*
X116831021Y-56668275D01*
X116802978Y-56720294D01*
X116758328Y-56777901D01*
X116727188Y-56809990D01*
X116628969Y-56879995D01*
X116511473Y-56926286D01*
X116378608Y-56948198D01*
X116234284Y-56945060D01*
X116091532Y-56918639D01*
X115953453Y-56870430D01*
X115830419Y-56803720D01*
X115725647Y-56721794D01*
X115642354Y-56627942D01*
X115583755Y-56525449D01*
X115553067Y-56417603D01*
X115549194Y-56364395D01*
X115563172Y-56260375D01*
X115603179Y-56170911D01*
X115665725Y-56096509D01*
X115747324Y-56037678D01*
X115844485Y-55994925D01*
X115953720Y-55968758D01*
X116071540Y-55959685D01*
X116194457Y-55968213D01*
X116318982Y-55994850D01*
X116441626Y-56040104D01*
X116558900Y-56104483D01*
X116667315Y-56188493D01*
X116679544Y-56199898D01*
X116725823Y-56242998D01*
X116762237Y-56275141D01*
X116783142Y-56291422D01*
X116785916Y-56292377D01*
X116791458Y-56276374D01*
X116805762Y-56231995D01*
X116827931Y-56162097D01*
X116857070Y-56069532D01*
X116892284Y-55957159D01*
X116932678Y-55827830D01*
X116977355Y-55684402D01*
X117025420Y-55529730D01*
X117053597Y-55438897D01*
X117127723Y-55199781D01*
X117192806Y-54989921D01*
X117249508Y-54807355D01*
X117298487Y-54650122D01*
X117340404Y-54516262D01*
X117375918Y-54403812D01*
X117405690Y-54310811D01*
X117430379Y-54235298D01*
X117450646Y-54175313D01*
X117467150Y-54128893D01*
X117480551Y-54094078D01*
X117491510Y-54068905D01*
X117500685Y-54051415D01*
X117508737Y-54039646D01*
X117516327Y-54031636D01*
X117524113Y-54025424D01*
X117530870Y-54020473D01*
X117559751Y-54001655D01*
X117586787Y-53995142D01*
X117624431Y-53999795D01*
G37*
G36*
X116046453Y-52056866D02*
G01*
X116069522Y-52073362D01*
X116087263Y-52099684D01*
X116096014Y-52118158D01*
X116100657Y-52136200D01*
X116105564Y-52170558D01*
X116110825Y-52222795D01*
X116116531Y-52294472D01*
X116122773Y-52387150D01*
X116129642Y-52502391D01*
X116137229Y-52641757D01*
X116145625Y-52806809D01*
X116154920Y-52999108D01*
X116165205Y-53220216D01*
X116176572Y-53471695D01*
X116182323Y-53601030D01*
X116191670Y-53815717D01*
X116200351Y-54022027D01*
X116208278Y-54217489D01*
X116215366Y-54399630D01*
X116221528Y-54565979D01*
X116226677Y-54714063D01*
X116230727Y-54841413D01*
X116233591Y-54945554D01*
X116235184Y-55024017D01*
X116235417Y-55074329D01*
X116234531Y-55092865D01*
X116201874Y-55187092D01*
X116140615Y-55277139D01*
X116054813Y-55357457D01*
X116025838Y-55378191D01*
X115929773Y-55434961D01*
X115833648Y-55473552D01*
X115726854Y-55497248D01*
X115602810Y-55509120D01*
X115445939Y-55507002D01*
X115308080Y-55481701D01*
X115183997Y-55431960D01*
X115118149Y-55392675D01*
X115021285Y-55312206D01*
X114954505Y-55222486D01*
X114918203Y-55126243D01*
X114912768Y-55026207D01*
X114938593Y-54925105D01*
X114996068Y-54825667D01*
X115030815Y-54783877D01*
X115129152Y-54699355D01*
X115248174Y-54634499D01*
X115381866Y-54590110D01*
X115524216Y-54566989D01*
X115669210Y-54565936D01*
X115810837Y-54587751D01*
X115943082Y-54633237D01*
X115988647Y-54656346D01*
X116031108Y-54677921D01*
X116060738Y-54688964D01*
X116068402Y-54688913D01*
X116069438Y-54671385D01*
X116068992Y-54624895D01*
X116067185Y-54553133D01*
X116064136Y-54459786D01*
X116059967Y-54348544D01*
X116054797Y-54223097D01*
X116048787Y-54087998D01*
X116041955Y-53938649D01*
X116035152Y-53788135D01*
X116028643Y-53642424D01*
X116022692Y-53507480D01*
X116017562Y-53389270D01*
X116013516Y-53293759D01*
X116011547Y-53245528D01*
X116007747Y-53159475D01*
X116003802Y-53086280D01*
X116000069Y-53031543D01*
X115996907Y-53000862D01*
X115995567Y-52996268D01*
X115979700Y-53002371D01*
X115936797Y-53019821D01*
X115869973Y-53047328D01*
X115782340Y-53083601D01*
X115677013Y-53127350D01*
X115557104Y-53177284D01*
X115425727Y-53232114D01*
X115340218Y-53267860D01*
X115195435Y-53328383D01*
X115053562Y-53387620D01*
X114918857Y-53443797D01*
X114795577Y-53495141D01*
X114687981Y-53539880D01*
X114600327Y-53576241D01*
X114536872Y-53602450D01*
X114519305Y-53609660D01*
X114411978Y-53653661D01*
X114331162Y-53687320D01*
X114273103Y-53712647D01*
X114234045Y-53731650D01*
X114210232Y-53746338D01*
X114197909Y-53758718D01*
X114193320Y-53770800D01*
X114192707Y-53784329D01*
X114193521Y-53808329D01*
X114195722Y-53861338D01*
X114199145Y-53939711D01*
X114203626Y-54039803D01*
X114209002Y-54157970D01*
X114215108Y-54290566D01*
X114221782Y-54433949D01*
X114224878Y-54500000D01*
X114232831Y-54670683D01*
X114241182Y-54852462D01*
X114249598Y-55037897D01*
X114257744Y-55219550D01*
X114265286Y-55389982D01*
X114271892Y-55541754D01*
X114276670Y-55654075D01*
X114296590Y-56129836D01*
X114251014Y-56222990D01*
X114193744Y-56309598D01*
X114113631Y-56389295D01*
X114020452Y-56453044D01*
X113981484Y-56472153D01*
X113847216Y-56517645D01*
X113703167Y-56544526D01*
X113561685Y-56551053D01*
X113476493Y-56543483D01*
X113347024Y-56512021D01*
X113227617Y-56460885D01*
X113124138Y-56393711D01*
X113042452Y-56314130D01*
X112998414Y-56247311D01*
X112972780Y-56166953D01*
X112966823Y-56074007D01*
X112980475Y-55981936D01*
X113000041Y-55928500D01*
X113060847Y-55838165D01*
X113148119Y-55758180D01*
X113256545Y-55691224D01*
X113380812Y-55639980D01*
X113515609Y-55607128D01*
X113655623Y-55595350D01*
X113660112Y-55595351D01*
X113772843Y-55605754D01*
X113893239Y-55633534D01*
X114004640Y-55674448D01*
X114040496Y-55692202D01*
X114086838Y-55714519D01*
X114117780Y-55723916D01*
X114126886Y-55720210D01*
X114126127Y-55701225D01*
X114123974Y-55652150D01*
X114120545Y-55575552D01*
X114115955Y-55473997D01*
X114110322Y-55350051D01*
X114103763Y-55206279D01*
X114096395Y-55045247D01*
X114088333Y-54869521D01*
X114079697Y-54681667D01*
X114070601Y-54484252D01*
X114069820Y-54467310D01*
X114058135Y-54214128D01*
X114047902Y-53991517D01*
X114039102Y-53797392D01*
X114031717Y-53629669D01*
X114025729Y-53486260D01*
X114021119Y-53365083D01*
X114017869Y-53264050D01*
X114015961Y-53181077D01*
X114015378Y-53114078D01*
X114016099Y-53060969D01*
X114018108Y-53019663D01*
X114021387Y-52988076D01*
X114025916Y-52964123D01*
X114031677Y-52945717D01*
X114038654Y-52930774D01*
X114046826Y-52917209D01*
X114056150Y-52902976D01*
X114095784Y-52854414D01*
X114142821Y-52813350D01*
X114158306Y-52803531D01*
X114186383Y-52790078D01*
X114240961Y-52765752D01*
X114318322Y-52732145D01*
X114414747Y-52690848D01*
X114526516Y-52643453D01*
X114649912Y-52591552D01*
X114781216Y-52536736D01*
X114797168Y-52530103D01*
X114937995Y-52471531D01*
X115079035Y-52412775D01*
X115215126Y-52355995D01*
X115341102Y-52303349D01*
X115451798Y-52256996D01*
X115542050Y-52219092D01*
X115600884Y-52194260D01*
X115729146Y-52140542D01*
X115831159Y-52099866D01*
X115910409Y-52071697D01*
X115970384Y-52055498D01*
X116014569Y-52050733D01*
X116046453Y-52056866D01*
G37*
%TD*%
D14*
X127940000Y-97460000D03*
X130480000Y-97460000D03*
X133020000Y-97460000D03*
X135560000Y-97460000D03*
X138100000Y-97460000D03*
X140640000Y-97460000D03*
X143180000Y-97460000D03*
X145720000Y-97460000D03*
X150800000Y-97460000D03*
X153340000Y-97460000D03*
X155880000Y-97460000D03*
X158420000Y-97460000D03*
X160960000Y-97460000D03*
X163500000Y-97460000D03*
X118796000Y-49200000D03*
X121336000Y-49200000D03*
X123876000Y-49200000D03*
X126416000Y-49200000D03*
X128956000Y-49200000D03*
X131496000Y-49200000D03*
X134036000Y-49200000D03*
X136576000Y-49200000D03*
X139116000Y-49200000D03*
X141656000Y-49200000D03*
X145720000Y-49200000D03*
X148260000Y-49200000D03*
X150800000Y-49200000D03*
X153340000Y-49200000D03*
X155880000Y-49200000D03*
X158420000Y-49200000D03*
X160960000Y-49200000D03*
X163500000Y-49200000D03*
X124000000Y-89000000D03*
X124000000Y-82500000D03*
X128500000Y-82500000D03*
X128500000Y-89000000D03*
X140000000Y-89000000D03*
X140000000Y-82500000D03*
X144500000Y-82500000D03*
X144500000Y-89000000D03*
X116000000Y-89000000D03*
X116000000Y-82500000D03*
X120500000Y-82500000D03*
X120500000Y-89000000D03*
X158000000Y-78160000D03*
X158000000Y-68000000D03*
X132000000Y-89000000D03*
X132000000Y-82500000D03*
X136500000Y-82500000D03*
X136500000Y-89000000D03*
X115240000Y-49200000D03*
X151000000Y-58500000D03*
X161000000Y-58500000D03*
X113970000Y-97460000D03*
X166040000Y-64440000D03*
X166040000Y-92380000D03*
X122000000Y-65840000D03*
X122000000Y-76000000D03*
X138500000Y-65840000D03*
X138500000Y-76000000D03*
X130500000Y-65840000D03*
X130500000Y-76000000D03*
M02*
