%TF.GenerationSoftware,KiCad,Pcbnew,8.0.0*%
%TF.CreationDate,2024-04-21T11:23:52-04:00*%
%TF.ProjectId,7_keyboard_instrument,375f6b65-7962-46f6-9172-645f696e7374,rev?*%
%TF.SameCoordinates,Original*%
%TF.FileFunction,Legend,Bot*%
%TF.FilePolarity,Positive*%
%FSLAX46Y46*%
G04 Gerber Fmt 4.6, Leading zero omitted, Abs format (unit mm)*
G04 Created by KiCad (PCBNEW 8.0.0) date 2024-04-21 11:23:52*
%MOMM*%
%LPD*%
G01*
G04 APERTURE LIST*
%ADD10C,0.300000*%
%ADD11C,0.150000*%
%ADD12C,0.120000*%
%ADD13C,0.350000*%
G04 APERTURE END LIST*
D10*
X160659774Y-84470996D02*
X160516917Y-84470996D01*
X160516917Y-84470996D02*
X160374060Y-84542425D01*
X160374060Y-84542425D02*
X160302632Y-84613853D01*
X160302632Y-84613853D02*
X160231203Y-84756710D01*
X160231203Y-84756710D02*
X160159774Y-85042425D01*
X160159774Y-85042425D02*
X160159774Y-85399568D01*
X160159774Y-85399568D02*
X160231203Y-85685282D01*
X160231203Y-85685282D02*
X160302632Y-85828139D01*
X160302632Y-85828139D02*
X160374060Y-85899568D01*
X160374060Y-85899568D02*
X160516917Y-85970996D01*
X160516917Y-85970996D02*
X160659774Y-85970996D01*
X160659774Y-85970996D02*
X160802632Y-85899568D01*
X160802632Y-85899568D02*
X160874060Y-85828139D01*
X160874060Y-85828139D02*
X160945489Y-85685282D01*
X160945489Y-85685282D02*
X161016917Y-85399568D01*
X161016917Y-85399568D02*
X161016917Y-85042425D01*
X161016917Y-85042425D02*
X160945489Y-84756710D01*
X160945489Y-84756710D02*
X160874060Y-84613853D01*
X160874060Y-84613853D02*
X160802632Y-84542425D01*
X160802632Y-84542425D02*
X160659774Y-84470996D01*
X159659775Y-84470996D02*
X158659775Y-84470996D01*
X158659775Y-84470996D02*
X159302632Y-85970996D01*
X158088347Y-85828139D02*
X158016918Y-85899568D01*
X158016918Y-85899568D02*
X158088347Y-85970996D01*
X158088347Y-85970996D02*
X158159775Y-85899568D01*
X158159775Y-85899568D02*
X158088347Y-85828139D01*
X158088347Y-85828139D02*
X158088347Y-85970996D01*
X158088347Y-85042425D02*
X158016918Y-85113853D01*
X158016918Y-85113853D02*
X158088347Y-85185282D01*
X158088347Y-85185282D02*
X158159775Y-85113853D01*
X158159775Y-85113853D02*
X158088347Y-85042425D01*
X158088347Y-85042425D02*
X158088347Y-85185282D01*
X156231204Y-85970996D02*
X156231204Y-84470996D01*
X155374061Y-85970996D02*
X156016918Y-85113853D01*
X155374061Y-84470996D02*
X156231204Y-85328139D01*
X154731204Y-85185282D02*
X154231204Y-85185282D01*
X154016918Y-85970996D02*
X154731204Y-85970996D01*
X154731204Y-85970996D02*
X154731204Y-84470996D01*
X154731204Y-84470996D02*
X154016918Y-84470996D01*
X153088346Y-85256710D02*
X153088346Y-85970996D01*
X153588346Y-84470996D02*
X153088346Y-85256710D01*
X153088346Y-85256710D02*
X152588346Y-84470996D01*
X151588347Y-85185282D02*
X151374061Y-85256710D01*
X151374061Y-85256710D02*
X151302632Y-85328139D01*
X151302632Y-85328139D02*
X151231204Y-85470996D01*
X151231204Y-85470996D02*
X151231204Y-85685282D01*
X151231204Y-85685282D02*
X151302632Y-85828139D01*
X151302632Y-85828139D02*
X151374061Y-85899568D01*
X151374061Y-85899568D02*
X151516918Y-85970996D01*
X151516918Y-85970996D02*
X152088347Y-85970996D01*
X152088347Y-85970996D02*
X152088347Y-84470996D01*
X152088347Y-84470996D02*
X151588347Y-84470996D01*
X151588347Y-84470996D02*
X151445490Y-84542425D01*
X151445490Y-84542425D02*
X151374061Y-84613853D01*
X151374061Y-84613853D02*
X151302632Y-84756710D01*
X151302632Y-84756710D02*
X151302632Y-84899568D01*
X151302632Y-84899568D02*
X151374061Y-85042425D01*
X151374061Y-85042425D02*
X151445490Y-85113853D01*
X151445490Y-85113853D02*
X151588347Y-85185282D01*
X151588347Y-85185282D02*
X152088347Y-85185282D01*
X150302632Y-84470996D02*
X150016918Y-84470996D01*
X150016918Y-84470996D02*
X149874061Y-84542425D01*
X149874061Y-84542425D02*
X149731204Y-84685282D01*
X149731204Y-84685282D02*
X149659775Y-84970996D01*
X149659775Y-84970996D02*
X149659775Y-85470996D01*
X149659775Y-85470996D02*
X149731204Y-85756710D01*
X149731204Y-85756710D02*
X149874061Y-85899568D01*
X149874061Y-85899568D02*
X150016918Y-85970996D01*
X150016918Y-85970996D02*
X150302632Y-85970996D01*
X150302632Y-85970996D02*
X150445490Y-85899568D01*
X150445490Y-85899568D02*
X150588347Y-85756710D01*
X150588347Y-85756710D02*
X150659775Y-85470996D01*
X150659775Y-85470996D02*
X150659775Y-84970996D01*
X150659775Y-84970996D02*
X150588347Y-84685282D01*
X150588347Y-84685282D02*
X150445490Y-84542425D01*
X150445490Y-84542425D02*
X150302632Y-84470996D01*
X149088346Y-85542425D02*
X148374061Y-85542425D01*
X149231203Y-85970996D02*
X148731203Y-84470996D01*
X148731203Y-84470996D02*
X148231203Y-85970996D01*
X146874061Y-85970996D02*
X147374061Y-85256710D01*
X147731204Y-85970996D02*
X147731204Y-84470996D01*
X147731204Y-84470996D02*
X147159775Y-84470996D01*
X147159775Y-84470996D02*
X147016918Y-84542425D01*
X147016918Y-84542425D02*
X146945489Y-84613853D01*
X146945489Y-84613853D02*
X146874061Y-84756710D01*
X146874061Y-84756710D02*
X146874061Y-84970996D01*
X146874061Y-84970996D02*
X146945489Y-85113853D01*
X146945489Y-85113853D02*
X147016918Y-85185282D01*
X147016918Y-85185282D02*
X147159775Y-85256710D01*
X147159775Y-85256710D02*
X147731204Y-85256710D01*
X146231204Y-85970996D02*
X146231204Y-84470996D01*
X146231204Y-84470996D02*
X145874061Y-84470996D01*
X145874061Y-84470996D02*
X145659775Y-84542425D01*
X145659775Y-84542425D02*
X145516918Y-84685282D01*
X145516918Y-84685282D02*
X145445489Y-84828139D01*
X145445489Y-84828139D02*
X145374061Y-85113853D01*
X145374061Y-85113853D02*
X145374061Y-85328139D01*
X145374061Y-85328139D02*
X145445489Y-85613853D01*
X145445489Y-85613853D02*
X145516918Y-85756710D01*
X145516918Y-85756710D02*
X145659775Y-85899568D01*
X145659775Y-85899568D02*
X145874061Y-85970996D01*
X145874061Y-85970996D02*
X146231204Y-85970996D01*
X143588347Y-85970996D02*
X143588347Y-84470996D01*
X142874061Y-85970996D02*
X142874061Y-84470996D01*
X142874061Y-84470996D02*
X142016918Y-85970996D01*
X142016918Y-85970996D02*
X142016918Y-84470996D01*
X141374060Y-85899568D02*
X141159775Y-85970996D01*
X141159775Y-85970996D02*
X140802632Y-85970996D01*
X140802632Y-85970996D02*
X140659775Y-85899568D01*
X140659775Y-85899568D02*
X140588346Y-85828139D01*
X140588346Y-85828139D02*
X140516917Y-85685282D01*
X140516917Y-85685282D02*
X140516917Y-85542425D01*
X140516917Y-85542425D02*
X140588346Y-85399568D01*
X140588346Y-85399568D02*
X140659775Y-85328139D01*
X140659775Y-85328139D02*
X140802632Y-85256710D01*
X140802632Y-85256710D02*
X141088346Y-85185282D01*
X141088346Y-85185282D02*
X141231203Y-85113853D01*
X141231203Y-85113853D02*
X141302632Y-85042425D01*
X141302632Y-85042425D02*
X141374060Y-84899568D01*
X141374060Y-84899568D02*
X141374060Y-84756710D01*
X141374060Y-84756710D02*
X141302632Y-84613853D01*
X141302632Y-84613853D02*
X141231203Y-84542425D01*
X141231203Y-84542425D02*
X141088346Y-84470996D01*
X141088346Y-84470996D02*
X140731203Y-84470996D01*
X140731203Y-84470996D02*
X140516917Y-84542425D01*
X140088346Y-84470996D02*
X139231204Y-84470996D01*
X139659775Y-85970996D02*
X139659775Y-84470996D01*
X137874061Y-85970996D02*
X138374061Y-85256710D01*
X138731204Y-85970996D02*
X138731204Y-84470996D01*
X138731204Y-84470996D02*
X138159775Y-84470996D01*
X138159775Y-84470996D02*
X138016918Y-84542425D01*
X138016918Y-84542425D02*
X137945489Y-84613853D01*
X137945489Y-84613853D02*
X137874061Y-84756710D01*
X137874061Y-84756710D02*
X137874061Y-84970996D01*
X137874061Y-84970996D02*
X137945489Y-85113853D01*
X137945489Y-85113853D02*
X138016918Y-85185282D01*
X138016918Y-85185282D02*
X138159775Y-85256710D01*
X138159775Y-85256710D02*
X138731204Y-85256710D01*
X137231204Y-84470996D02*
X137231204Y-85685282D01*
X137231204Y-85685282D02*
X137159775Y-85828139D01*
X137159775Y-85828139D02*
X137088347Y-85899568D01*
X137088347Y-85899568D02*
X136945489Y-85970996D01*
X136945489Y-85970996D02*
X136659775Y-85970996D01*
X136659775Y-85970996D02*
X136516918Y-85899568D01*
X136516918Y-85899568D02*
X136445489Y-85828139D01*
X136445489Y-85828139D02*
X136374061Y-85685282D01*
X136374061Y-85685282D02*
X136374061Y-84470996D01*
X135659775Y-85970996D02*
X135659775Y-84470996D01*
X135659775Y-84470996D02*
X135159775Y-85542425D01*
X135159775Y-85542425D02*
X134659775Y-84470996D01*
X134659775Y-84470996D02*
X134659775Y-85970996D01*
X133945489Y-85185282D02*
X133445489Y-85185282D01*
X133231203Y-85970996D02*
X133945489Y-85970996D01*
X133945489Y-85970996D02*
X133945489Y-84470996D01*
X133945489Y-84470996D02*
X133231203Y-84470996D01*
X132588346Y-85970996D02*
X132588346Y-84470996D01*
X132588346Y-84470996D02*
X131731203Y-85970996D01*
X131731203Y-85970996D02*
X131731203Y-84470996D01*
X131231202Y-84470996D02*
X130374060Y-84470996D01*
X130802631Y-85970996D02*
X130802631Y-84470996D01*
X128802631Y-85542425D02*
X128088346Y-85542425D01*
X128945488Y-85970996D02*
X128445488Y-84470996D01*
X128445488Y-84470996D02*
X127945488Y-85970996D01*
X126588346Y-85970996D02*
X127088346Y-85256710D01*
X127445489Y-85970996D02*
X127445489Y-84470996D01*
X127445489Y-84470996D02*
X126874060Y-84470996D01*
X126874060Y-84470996D02*
X126731203Y-84542425D01*
X126731203Y-84542425D02*
X126659774Y-84613853D01*
X126659774Y-84613853D02*
X126588346Y-84756710D01*
X126588346Y-84756710D02*
X126588346Y-84970996D01*
X126588346Y-84970996D02*
X126659774Y-85113853D01*
X126659774Y-85113853D02*
X126731203Y-85185282D01*
X126731203Y-85185282D02*
X126874060Y-85256710D01*
X126874060Y-85256710D02*
X127445489Y-85256710D01*
X125945489Y-85970996D02*
X125945489Y-84470996D01*
X125945489Y-84470996D02*
X125588346Y-84470996D01*
X125588346Y-84470996D02*
X125374060Y-84542425D01*
X125374060Y-84542425D02*
X125231203Y-84685282D01*
X125231203Y-84685282D02*
X125159774Y-84828139D01*
X125159774Y-84828139D02*
X125088346Y-85113853D01*
X125088346Y-85113853D02*
X125088346Y-85328139D01*
X125088346Y-85328139D02*
X125159774Y-85613853D01*
X125159774Y-85613853D02*
X125231203Y-85756710D01*
X125231203Y-85756710D02*
X125374060Y-85899568D01*
X125374060Y-85899568D02*
X125588346Y-85970996D01*
X125588346Y-85970996D02*
X125945489Y-85970996D01*
X124445489Y-84470996D02*
X124445489Y-85685282D01*
X124445489Y-85685282D02*
X124374060Y-85828139D01*
X124374060Y-85828139D02*
X124302632Y-85899568D01*
X124302632Y-85899568D02*
X124159774Y-85970996D01*
X124159774Y-85970996D02*
X123874060Y-85970996D01*
X123874060Y-85970996D02*
X123731203Y-85899568D01*
X123731203Y-85899568D02*
X123659774Y-85828139D01*
X123659774Y-85828139D02*
X123588346Y-85685282D01*
X123588346Y-85685282D02*
X123588346Y-84470996D01*
X122874060Y-85970996D02*
X122874060Y-84470996D01*
X122159774Y-85970996D02*
X122159774Y-84470996D01*
X122159774Y-84470996D02*
X121302631Y-85970996D01*
X121302631Y-85970996D02*
X121302631Y-84470996D01*
X120302630Y-84470996D02*
X120016916Y-84470996D01*
X120016916Y-84470996D02*
X119874059Y-84542425D01*
X119874059Y-84542425D02*
X119731202Y-84685282D01*
X119731202Y-84685282D02*
X119659773Y-84970996D01*
X119659773Y-84970996D02*
X119659773Y-85470996D01*
X119659773Y-85470996D02*
X119731202Y-85756710D01*
X119731202Y-85756710D02*
X119874059Y-85899568D01*
X119874059Y-85899568D02*
X120016916Y-85970996D01*
X120016916Y-85970996D02*
X120302630Y-85970996D01*
X120302630Y-85970996D02*
X120445488Y-85899568D01*
X120445488Y-85899568D02*
X120588345Y-85756710D01*
X120588345Y-85756710D02*
X120659773Y-85470996D01*
X120659773Y-85470996D02*
X120659773Y-84970996D01*
X120659773Y-84970996D02*
X120588345Y-84685282D01*
X120588345Y-84685282D02*
X120445488Y-84542425D01*
X120445488Y-84542425D02*
X120302630Y-84470996D01*
X117945487Y-85899568D02*
X117731202Y-85970996D01*
X117731202Y-85970996D02*
X117374059Y-85970996D01*
X117374059Y-85970996D02*
X117231202Y-85899568D01*
X117231202Y-85899568D02*
X117159773Y-85828139D01*
X117159773Y-85828139D02*
X117088344Y-85685282D01*
X117088344Y-85685282D02*
X117088344Y-85542425D01*
X117088344Y-85542425D02*
X117159773Y-85399568D01*
X117159773Y-85399568D02*
X117231202Y-85328139D01*
X117231202Y-85328139D02*
X117374059Y-85256710D01*
X117374059Y-85256710D02*
X117659773Y-85185282D01*
X117659773Y-85185282D02*
X117802630Y-85113853D01*
X117802630Y-85113853D02*
X117874059Y-85042425D01*
X117874059Y-85042425D02*
X117945487Y-84899568D01*
X117945487Y-84899568D02*
X117945487Y-84756710D01*
X117945487Y-84756710D02*
X117874059Y-84613853D01*
X117874059Y-84613853D02*
X117802630Y-84542425D01*
X117802630Y-84542425D02*
X117659773Y-84470996D01*
X117659773Y-84470996D02*
X117302630Y-84470996D01*
X117302630Y-84470996D02*
X117088344Y-84542425D01*
X116445488Y-85970996D02*
X116445488Y-84470996D01*
X116445488Y-85185282D02*
X115588345Y-85185282D01*
X115588345Y-85970996D02*
X115588345Y-84470996D01*
X114874059Y-85970996D02*
X114874059Y-84470996D01*
X114159773Y-85185282D02*
X113659773Y-85185282D01*
X113445487Y-85970996D02*
X114159773Y-85970996D01*
X114159773Y-85970996D02*
X114159773Y-84470996D01*
X114159773Y-84470996D02*
X113445487Y-84470996D01*
X112088344Y-85970996D02*
X112802630Y-85970996D01*
X112802630Y-85970996D02*
X112802630Y-84470996D01*
X111588344Y-85970996D02*
X111588344Y-84470996D01*
X111588344Y-84470996D02*
X111231201Y-84470996D01*
X111231201Y-84470996D02*
X111016915Y-84542425D01*
X111016915Y-84542425D02*
X110874058Y-84685282D01*
X110874058Y-84685282D02*
X110802629Y-84828139D01*
X110802629Y-84828139D02*
X110731201Y-85113853D01*
X110731201Y-85113853D02*
X110731201Y-85328139D01*
X110731201Y-85328139D02*
X110802629Y-85613853D01*
X110802629Y-85613853D02*
X110874058Y-85756710D01*
X110874058Y-85756710D02*
X111016915Y-85899568D01*
X111016915Y-85899568D02*
X111231201Y-85970996D01*
X111231201Y-85970996D02*
X111588344Y-85970996D01*
X160945489Y-88385912D02*
X160945489Y-86885912D01*
X160945489Y-86885912D02*
X160588346Y-86885912D01*
X160588346Y-86885912D02*
X160374060Y-86957341D01*
X160374060Y-86957341D02*
X160231203Y-87100198D01*
X160231203Y-87100198D02*
X160159774Y-87243055D01*
X160159774Y-87243055D02*
X160088346Y-87528769D01*
X160088346Y-87528769D02*
X160088346Y-87743055D01*
X160088346Y-87743055D02*
X160159774Y-88028769D01*
X160159774Y-88028769D02*
X160231203Y-88171626D01*
X160231203Y-88171626D02*
X160374060Y-88314484D01*
X160374060Y-88314484D02*
X160588346Y-88385912D01*
X160588346Y-88385912D02*
X160945489Y-88385912D01*
X159445489Y-88243055D02*
X159374060Y-88314484D01*
X159374060Y-88314484D02*
X159445489Y-88385912D01*
X159445489Y-88385912D02*
X159516917Y-88314484D01*
X159516917Y-88314484D02*
X159445489Y-88243055D01*
X159445489Y-88243055D02*
X159445489Y-88385912D01*
X158802631Y-88314484D02*
X158588346Y-88385912D01*
X158588346Y-88385912D02*
X158231203Y-88385912D01*
X158231203Y-88385912D02*
X158088346Y-88314484D01*
X158088346Y-88314484D02*
X158016917Y-88243055D01*
X158016917Y-88243055D02*
X157945488Y-88100198D01*
X157945488Y-88100198D02*
X157945488Y-87957341D01*
X157945488Y-87957341D02*
X158016917Y-87814484D01*
X158016917Y-87814484D02*
X158088346Y-87743055D01*
X158088346Y-87743055D02*
X158231203Y-87671626D01*
X158231203Y-87671626D02*
X158516917Y-87600198D01*
X158516917Y-87600198D02*
X158659774Y-87528769D01*
X158659774Y-87528769D02*
X158731203Y-87457341D01*
X158731203Y-87457341D02*
X158802631Y-87314484D01*
X158802631Y-87314484D02*
X158802631Y-87171626D01*
X158802631Y-87171626D02*
X158731203Y-87028769D01*
X158731203Y-87028769D02*
X158659774Y-86957341D01*
X158659774Y-86957341D02*
X158516917Y-86885912D01*
X158516917Y-86885912D02*
X158159774Y-86885912D01*
X158159774Y-86885912D02*
X157945488Y-86957341D01*
X157302632Y-88385912D02*
X157302632Y-86885912D01*
X157302632Y-87600198D02*
X156445489Y-87600198D01*
X156445489Y-88385912D02*
X156445489Y-86885912D01*
X155731203Y-87600198D02*
X155231203Y-87600198D01*
X155016917Y-88385912D02*
X155731203Y-88385912D01*
X155731203Y-88385912D02*
X155731203Y-86885912D01*
X155731203Y-86885912D02*
X155016917Y-86885912D01*
X153516917Y-88385912D02*
X154016917Y-87671626D01*
X154374060Y-88385912D02*
X154374060Y-86885912D01*
X154374060Y-86885912D02*
X153802631Y-86885912D01*
X153802631Y-86885912D02*
X153659774Y-86957341D01*
X153659774Y-86957341D02*
X153588345Y-87028769D01*
X153588345Y-87028769D02*
X153516917Y-87171626D01*
X153516917Y-87171626D02*
X153516917Y-87385912D01*
X153516917Y-87385912D02*
X153588345Y-87528769D01*
X153588345Y-87528769D02*
X153659774Y-87600198D01*
X153659774Y-87600198D02*
X153802631Y-87671626D01*
X153802631Y-87671626D02*
X154374060Y-87671626D01*
X152874060Y-88385912D02*
X152874060Y-86885912D01*
X152874060Y-86885912D02*
X152374060Y-87957341D01*
X152374060Y-87957341D02*
X151874060Y-86885912D01*
X151874060Y-86885912D02*
X151874060Y-88385912D01*
X151231202Y-87957341D02*
X150516917Y-87957341D01*
X151374059Y-88385912D02*
X150874059Y-86885912D01*
X150874059Y-86885912D02*
X150374059Y-88385912D01*
X149874060Y-88385912D02*
X149874060Y-86885912D01*
X149874060Y-86885912D02*
X149016917Y-88385912D01*
X149016917Y-88385912D02*
X149016917Y-86885912D01*
X160659774Y-89300828D02*
X160516917Y-89300828D01*
X160516917Y-89300828D02*
X160374060Y-89372257D01*
X160374060Y-89372257D02*
X160302632Y-89443685D01*
X160302632Y-89443685D02*
X160231203Y-89586542D01*
X160231203Y-89586542D02*
X160159774Y-89872257D01*
X160159774Y-89872257D02*
X160159774Y-90229400D01*
X160159774Y-90229400D02*
X160231203Y-90515114D01*
X160231203Y-90515114D02*
X160302632Y-90657971D01*
X160302632Y-90657971D02*
X160374060Y-90729400D01*
X160374060Y-90729400D02*
X160516917Y-90800828D01*
X160516917Y-90800828D02*
X160659774Y-90800828D01*
X160659774Y-90800828D02*
X160802632Y-90729400D01*
X160802632Y-90729400D02*
X160874060Y-90657971D01*
X160874060Y-90657971D02*
X160945489Y-90515114D01*
X160945489Y-90515114D02*
X161016917Y-90229400D01*
X161016917Y-90229400D02*
X161016917Y-89872257D01*
X161016917Y-89872257D02*
X160945489Y-89586542D01*
X160945489Y-89586542D02*
X160874060Y-89443685D01*
X160874060Y-89443685D02*
X160802632Y-89372257D01*
X160802632Y-89372257D02*
X160659774Y-89300828D01*
X158874061Y-89800828D02*
X158874061Y-90800828D01*
X159231203Y-89229400D02*
X159588346Y-90300828D01*
X159588346Y-90300828D02*
X158659775Y-90300828D01*
X157016918Y-89229400D02*
X158302632Y-91157971D01*
X156588346Y-89443685D02*
X156516918Y-89372257D01*
X156516918Y-89372257D02*
X156374061Y-89300828D01*
X156374061Y-89300828D02*
X156016918Y-89300828D01*
X156016918Y-89300828D02*
X155874061Y-89372257D01*
X155874061Y-89372257D02*
X155802632Y-89443685D01*
X155802632Y-89443685D02*
X155731203Y-89586542D01*
X155731203Y-89586542D02*
X155731203Y-89729400D01*
X155731203Y-89729400D02*
X155802632Y-89943685D01*
X155802632Y-89943685D02*
X156659775Y-90800828D01*
X156659775Y-90800828D02*
X155731203Y-90800828D01*
X154445490Y-89800828D02*
X154445490Y-90800828D01*
X154802632Y-89229400D02*
X155159775Y-90300828D01*
X155159775Y-90300828D02*
X154231204Y-90300828D01*
D11*
X123920057Y-69110476D02*
X123872438Y-69158095D01*
X123872438Y-69158095D02*
X123824819Y-69253333D01*
X123824819Y-69253333D02*
X123824819Y-69491428D01*
X123824819Y-69491428D02*
X123872438Y-69586666D01*
X123872438Y-69586666D02*
X123920057Y-69634285D01*
X123920057Y-69634285D02*
X124015295Y-69681904D01*
X124015295Y-69681904D02*
X124110533Y-69681904D01*
X124110533Y-69681904D02*
X124253390Y-69634285D01*
X124253390Y-69634285D02*
X124824819Y-69062857D01*
X124824819Y-69062857D02*
X124824819Y-69681904D01*
X123920057Y-70062857D02*
X123872438Y-70110476D01*
X123872438Y-70110476D02*
X123824819Y-70205714D01*
X123824819Y-70205714D02*
X123824819Y-70443809D01*
X123824819Y-70443809D02*
X123872438Y-70539047D01*
X123872438Y-70539047D02*
X123920057Y-70586666D01*
X123920057Y-70586666D02*
X124015295Y-70634285D01*
X124015295Y-70634285D02*
X124110533Y-70634285D01*
X124110533Y-70634285D02*
X124253390Y-70586666D01*
X124253390Y-70586666D02*
X124824819Y-70015238D01*
X124824819Y-70015238D02*
X124824819Y-70634285D01*
X123824819Y-71253333D02*
X123824819Y-71348571D01*
X123824819Y-71348571D02*
X123872438Y-71443809D01*
X123872438Y-71443809D02*
X123920057Y-71491428D01*
X123920057Y-71491428D02*
X124015295Y-71539047D01*
X124015295Y-71539047D02*
X124205771Y-71586666D01*
X124205771Y-71586666D02*
X124443866Y-71586666D01*
X124443866Y-71586666D02*
X124634342Y-71539047D01*
X124634342Y-71539047D02*
X124729580Y-71491428D01*
X124729580Y-71491428D02*
X124777200Y-71443809D01*
X124777200Y-71443809D02*
X124824819Y-71348571D01*
X124824819Y-71348571D02*
X124824819Y-71253333D01*
X124824819Y-71253333D02*
X124777200Y-71158095D01*
X124777200Y-71158095D02*
X124729580Y-71110476D01*
X124729580Y-71110476D02*
X124634342Y-71062857D01*
X124634342Y-71062857D02*
X124443866Y-71015238D01*
X124443866Y-71015238D02*
X124205771Y-71015238D01*
X124205771Y-71015238D02*
X124015295Y-71062857D01*
X124015295Y-71062857D02*
X123920057Y-71110476D01*
X123920057Y-71110476D02*
X123872438Y-71158095D01*
X123872438Y-71158095D02*
X123824819Y-71253333D01*
X124824819Y-71967619D02*
X124824819Y-72205714D01*
X124824819Y-72205714D02*
X124634342Y-72205714D01*
X124634342Y-72205714D02*
X124586723Y-72110476D01*
X124586723Y-72110476D02*
X124491485Y-72015238D01*
X124491485Y-72015238D02*
X124348628Y-71967619D01*
X124348628Y-71967619D02*
X124110533Y-71967619D01*
X124110533Y-71967619D02*
X123967676Y-72015238D01*
X123967676Y-72015238D02*
X123872438Y-72110476D01*
X123872438Y-72110476D02*
X123824819Y-72253333D01*
X123824819Y-72253333D02*
X123824819Y-72443809D01*
X123824819Y-72443809D02*
X123872438Y-72586666D01*
X123872438Y-72586666D02*
X123967676Y-72681904D01*
X123967676Y-72681904D02*
X124110533Y-72729523D01*
X124110533Y-72729523D02*
X124348628Y-72729523D01*
X124348628Y-72729523D02*
X124491485Y-72681904D01*
X124491485Y-72681904D02*
X124586723Y-72586666D01*
X124586723Y-72586666D02*
X124634342Y-72491428D01*
X124634342Y-72491428D02*
X124824819Y-72491428D01*
X124824819Y-72491428D02*
X124824819Y-72729523D01*
X136584819Y-70753333D02*
X136108628Y-70420000D01*
X136584819Y-70181905D02*
X135584819Y-70181905D01*
X135584819Y-70181905D02*
X135584819Y-70562857D01*
X135584819Y-70562857D02*
X135632438Y-70658095D01*
X135632438Y-70658095D02*
X135680057Y-70705714D01*
X135680057Y-70705714D02*
X135775295Y-70753333D01*
X135775295Y-70753333D02*
X135918152Y-70753333D01*
X135918152Y-70753333D02*
X136013390Y-70705714D01*
X136013390Y-70705714D02*
X136061009Y-70658095D01*
X136061009Y-70658095D02*
X136108628Y-70562857D01*
X136108628Y-70562857D02*
X136108628Y-70181905D01*
X135584819Y-71086667D02*
X135584819Y-71705714D01*
X135584819Y-71705714D02*
X135965771Y-71372381D01*
X135965771Y-71372381D02*
X135965771Y-71515238D01*
X135965771Y-71515238D02*
X136013390Y-71610476D01*
X136013390Y-71610476D02*
X136061009Y-71658095D01*
X136061009Y-71658095D02*
X136156247Y-71705714D01*
X136156247Y-71705714D02*
X136394342Y-71705714D01*
X136394342Y-71705714D02*
X136489580Y-71658095D01*
X136489580Y-71658095D02*
X136537200Y-71610476D01*
X136537200Y-71610476D02*
X136584819Y-71515238D01*
X136584819Y-71515238D02*
X136584819Y-71229524D01*
X136584819Y-71229524D02*
X136537200Y-71134286D01*
X136537200Y-71134286D02*
X136489580Y-71086667D01*
X141324819Y-70062857D02*
X141324819Y-69491429D01*
X141324819Y-69777143D02*
X140324819Y-69777143D01*
X140324819Y-69777143D02*
X140467676Y-69681905D01*
X140467676Y-69681905D02*
X140562914Y-69586667D01*
X140562914Y-69586667D02*
X140610533Y-69491429D01*
X141324819Y-70491429D02*
X140324819Y-70491429D01*
X140324819Y-70491429D02*
X141039104Y-70824762D01*
X141039104Y-70824762D02*
X140324819Y-71158095D01*
X140324819Y-71158095D02*
X141324819Y-71158095D01*
X141324819Y-71586667D02*
X141324819Y-71824762D01*
X141324819Y-71824762D02*
X141134342Y-71824762D01*
X141134342Y-71824762D02*
X141086723Y-71729524D01*
X141086723Y-71729524D02*
X140991485Y-71634286D01*
X140991485Y-71634286D02*
X140848628Y-71586667D01*
X140848628Y-71586667D02*
X140610533Y-71586667D01*
X140610533Y-71586667D02*
X140467676Y-71634286D01*
X140467676Y-71634286D02*
X140372438Y-71729524D01*
X140372438Y-71729524D02*
X140324819Y-71872381D01*
X140324819Y-71872381D02*
X140324819Y-72062857D01*
X140324819Y-72062857D02*
X140372438Y-72205714D01*
X140372438Y-72205714D02*
X140467676Y-72300952D01*
X140467676Y-72300952D02*
X140610533Y-72348571D01*
X140610533Y-72348571D02*
X140848628Y-72348571D01*
X140848628Y-72348571D02*
X140991485Y-72300952D01*
X140991485Y-72300952D02*
X141086723Y-72205714D01*
X141086723Y-72205714D02*
X141134342Y-72110476D01*
X141134342Y-72110476D02*
X141324819Y-72110476D01*
X141324819Y-72110476D02*
X141324819Y-72348571D01*
X128584819Y-70753333D02*
X128108628Y-70420000D01*
X128584819Y-70181905D02*
X127584819Y-70181905D01*
X127584819Y-70181905D02*
X127584819Y-70562857D01*
X127584819Y-70562857D02*
X127632438Y-70658095D01*
X127632438Y-70658095D02*
X127680057Y-70705714D01*
X127680057Y-70705714D02*
X127775295Y-70753333D01*
X127775295Y-70753333D02*
X127918152Y-70753333D01*
X127918152Y-70753333D02*
X128013390Y-70705714D01*
X128013390Y-70705714D02*
X128061009Y-70658095D01*
X128061009Y-70658095D02*
X128108628Y-70562857D01*
X128108628Y-70562857D02*
X128108628Y-70181905D01*
X127680057Y-71134286D02*
X127632438Y-71181905D01*
X127632438Y-71181905D02*
X127584819Y-71277143D01*
X127584819Y-71277143D02*
X127584819Y-71515238D01*
X127584819Y-71515238D02*
X127632438Y-71610476D01*
X127632438Y-71610476D02*
X127680057Y-71658095D01*
X127680057Y-71658095D02*
X127775295Y-71705714D01*
X127775295Y-71705714D02*
X127870533Y-71705714D01*
X127870533Y-71705714D02*
X128013390Y-71658095D01*
X128013390Y-71658095D02*
X128584819Y-71086667D01*
X128584819Y-71086667D02*
X128584819Y-71705714D01*
X133324819Y-69753333D02*
X133324819Y-69181905D01*
X133324819Y-69467619D02*
X132324819Y-69467619D01*
X132324819Y-69467619D02*
X132467676Y-69372381D01*
X132467676Y-69372381D02*
X132562914Y-69277143D01*
X132562914Y-69277143D02*
X132610533Y-69181905D01*
X132324819Y-70372381D02*
X132324819Y-70467619D01*
X132324819Y-70467619D02*
X132372438Y-70562857D01*
X132372438Y-70562857D02*
X132420057Y-70610476D01*
X132420057Y-70610476D02*
X132515295Y-70658095D01*
X132515295Y-70658095D02*
X132705771Y-70705714D01*
X132705771Y-70705714D02*
X132943866Y-70705714D01*
X132943866Y-70705714D02*
X133134342Y-70658095D01*
X133134342Y-70658095D02*
X133229580Y-70610476D01*
X133229580Y-70610476D02*
X133277200Y-70562857D01*
X133277200Y-70562857D02*
X133324819Y-70467619D01*
X133324819Y-70467619D02*
X133324819Y-70372381D01*
X133324819Y-70372381D02*
X133277200Y-70277143D01*
X133277200Y-70277143D02*
X133229580Y-70229524D01*
X133229580Y-70229524D02*
X133134342Y-70181905D01*
X133134342Y-70181905D02*
X132943866Y-70134286D01*
X132943866Y-70134286D02*
X132705771Y-70134286D01*
X132705771Y-70134286D02*
X132515295Y-70181905D01*
X132515295Y-70181905D02*
X132420057Y-70229524D01*
X132420057Y-70229524D02*
X132372438Y-70277143D01*
X132372438Y-70277143D02*
X132324819Y-70372381D01*
X133324819Y-71134286D02*
X132324819Y-71134286D01*
X132943866Y-71229524D02*
X133324819Y-71515238D01*
X132658152Y-71515238D02*
X133039104Y-71134286D01*
X133324819Y-71896191D02*
X133324819Y-72134286D01*
X133324819Y-72134286D02*
X133134342Y-72134286D01*
X133134342Y-72134286D02*
X133086723Y-72039048D01*
X133086723Y-72039048D02*
X132991485Y-71943810D01*
X132991485Y-71943810D02*
X132848628Y-71896191D01*
X132848628Y-71896191D02*
X132610533Y-71896191D01*
X132610533Y-71896191D02*
X132467676Y-71943810D01*
X132467676Y-71943810D02*
X132372438Y-72039048D01*
X132372438Y-72039048D02*
X132324819Y-72181905D01*
X132324819Y-72181905D02*
X132324819Y-72372381D01*
X132324819Y-72372381D02*
X132372438Y-72515238D01*
X132372438Y-72515238D02*
X132467676Y-72610476D01*
X132467676Y-72610476D02*
X132610533Y-72658095D01*
X132610533Y-72658095D02*
X132848628Y-72658095D01*
X132848628Y-72658095D02*
X132991485Y-72610476D01*
X132991485Y-72610476D02*
X133086723Y-72515238D01*
X133086723Y-72515238D02*
X133134342Y-72420000D01*
X133134342Y-72420000D02*
X133324819Y-72420000D01*
X133324819Y-72420000D02*
X133324819Y-72658095D01*
D12*
%TO.C,R1*%
X120630000Y-67650000D02*
X120630000Y-74190000D01*
X120630000Y-74190000D02*
X123370000Y-74190000D01*
X122000000Y-67650000D02*
X122000000Y-66880000D01*
X122000000Y-74190000D02*
X122000000Y-74960000D01*
X123370000Y-67650000D02*
X120630000Y-67650000D01*
X123370000Y-74190000D02*
X123370000Y-67650000D01*
%TO.C,R3*%
X137130000Y-67650000D02*
X137130000Y-74190000D01*
X137130000Y-74190000D02*
X139870000Y-74190000D01*
X138500000Y-67650000D02*
X138500000Y-66880000D01*
X138500000Y-74190000D02*
X138500000Y-74960000D01*
X139870000Y-67650000D02*
X137130000Y-67650000D01*
X139870000Y-74190000D02*
X139870000Y-67650000D01*
%TO.C,R2*%
X129130000Y-67650000D02*
X129130000Y-74190000D01*
X129130000Y-74190000D02*
X131870000Y-74190000D01*
X130500000Y-67650000D02*
X130500000Y-66880000D01*
X130500000Y-74190000D02*
X130500000Y-74960000D01*
X131870000Y-67650000D02*
X129130000Y-67650000D01*
X131870000Y-74190000D02*
X131870000Y-67650000D01*
%TD*%
D13*
X127940000Y-97460000D03*
X130480000Y-97460000D03*
X133020000Y-97460000D03*
X135560000Y-97460000D03*
X138100000Y-97460000D03*
X140640000Y-97460000D03*
X143180000Y-97460000D03*
X145720000Y-97460000D03*
X150800000Y-97460000D03*
X153340000Y-97460000D03*
X155880000Y-97460000D03*
X158420000Y-97460000D03*
X160960000Y-97460000D03*
X163500000Y-97460000D03*
X118796000Y-49200000D03*
X121336000Y-49200000D03*
X123876000Y-49200000D03*
X126416000Y-49200000D03*
X128956000Y-49200000D03*
X131496000Y-49200000D03*
X134036000Y-49200000D03*
X136576000Y-49200000D03*
X139116000Y-49200000D03*
X141656000Y-49200000D03*
X145720000Y-49200000D03*
X148260000Y-49200000D03*
X150800000Y-49200000D03*
X153340000Y-49200000D03*
X155880000Y-49200000D03*
X158420000Y-49200000D03*
X160960000Y-49200000D03*
X163500000Y-49200000D03*
X124000000Y-89000000D03*
X124000000Y-82500000D03*
X128500000Y-82500000D03*
X128500000Y-89000000D03*
X140000000Y-89000000D03*
X140000000Y-82500000D03*
X144500000Y-82500000D03*
X144500000Y-89000000D03*
X116000000Y-89000000D03*
X116000000Y-82500000D03*
X120500000Y-82500000D03*
X120500000Y-89000000D03*
X158000000Y-78160000D03*
X158000000Y-68000000D03*
X132000000Y-89000000D03*
X132000000Y-82500000D03*
X136500000Y-82500000D03*
X136500000Y-89000000D03*
X115240000Y-49200000D03*
X151000000Y-58500000D03*
X161000000Y-58500000D03*
X113970000Y-97460000D03*
X166040000Y-64440000D03*
X166040000Y-92380000D03*
X122000000Y-65840000D03*
X122000000Y-76000000D03*
X138500000Y-65840000D03*
X138500000Y-76000000D03*
X130500000Y-65840000D03*
X130500000Y-76000000D03*
M02*
