%TF.GenerationSoftware,KiCad,Pcbnew,8.0.0*%
%TF.CreationDate,2024-04-21T11:23:51-04:00*%
%TF.ProjectId,7_keyboard_instrument,375f6b65-7962-46f6-9172-645f696e7374,rev?*%
%TF.SameCoordinates,Original*%
%TF.FileFunction,Legend,Bot*%
%TF.FilePolarity,Positive*%
%FSLAX46Y46*%
G04 Gerber Fmt 4.6, Leading zero omitted, Abs format (unit mm)*
G04 Created by KiCad (PCBNEW 8.0.0) date 2024-04-21 11:23:51*
%MOMM*%
%LPD*%
G01*
G04 APERTURE LIST*
%ADD10C,0.300000*%
%ADD11C,0.150000*%
%ADD12C,0.120000*%
%ADD13C,0.350000*%
G04 APERTURE END LIST*
D10*
X60659774Y15529004D02*
X60516917Y15529004D01*
X60516917Y15529004D02*
X60374060Y15457575D01*
X60374060Y15457575D02*
X60302632Y15386147D01*
X60302632Y15386147D02*
X60231203Y15243290D01*
X60231203Y15243290D02*
X60159774Y14957575D01*
X60159774Y14957575D02*
X60159774Y14600432D01*
X60159774Y14600432D02*
X60231203Y14314718D01*
X60231203Y14314718D02*
X60302632Y14171861D01*
X60302632Y14171861D02*
X60374060Y14100432D01*
X60374060Y14100432D02*
X60516917Y14029004D01*
X60516917Y14029004D02*
X60659774Y14029004D01*
X60659774Y14029004D02*
X60802632Y14100432D01*
X60802632Y14100432D02*
X60874060Y14171861D01*
X60874060Y14171861D02*
X60945489Y14314718D01*
X60945489Y14314718D02*
X61016917Y14600432D01*
X61016917Y14600432D02*
X61016917Y14957575D01*
X61016917Y14957575D02*
X60945489Y15243290D01*
X60945489Y15243290D02*
X60874060Y15386147D01*
X60874060Y15386147D02*
X60802632Y15457575D01*
X60802632Y15457575D02*
X60659774Y15529004D01*
X59659775Y15529004D02*
X58659775Y15529004D01*
X58659775Y15529004D02*
X59302632Y14029004D01*
X58088347Y14171861D02*
X58016918Y14100432D01*
X58016918Y14100432D02*
X58088347Y14029004D01*
X58088347Y14029004D02*
X58159775Y14100432D01*
X58159775Y14100432D02*
X58088347Y14171861D01*
X58088347Y14171861D02*
X58088347Y14029004D01*
X58088347Y14957575D02*
X58016918Y14886147D01*
X58016918Y14886147D02*
X58088347Y14814718D01*
X58088347Y14814718D02*
X58159775Y14886147D01*
X58159775Y14886147D02*
X58088347Y14957575D01*
X58088347Y14957575D02*
X58088347Y14814718D01*
X56231204Y14029004D02*
X56231204Y15529004D01*
X55374061Y14029004D02*
X56016918Y14886147D01*
X55374061Y15529004D02*
X56231204Y14671861D01*
X54731204Y14814718D02*
X54231204Y14814718D01*
X54016918Y14029004D02*
X54731204Y14029004D01*
X54731204Y14029004D02*
X54731204Y15529004D01*
X54731204Y15529004D02*
X54016918Y15529004D01*
X53088346Y14743290D02*
X53088346Y14029004D01*
X53588346Y15529004D02*
X53088346Y14743290D01*
X53088346Y14743290D02*
X52588346Y15529004D01*
X51588347Y14814718D02*
X51374061Y14743290D01*
X51374061Y14743290D02*
X51302632Y14671861D01*
X51302632Y14671861D02*
X51231204Y14529004D01*
X51231204Y14529004D02*
X51231204Y14314718D01*
X51231204Y14314718D02*
X51302632Y14171861D01*
X51302632Y14171861D02*
X51374061Y14100432D01*
X51374061Y14100432D02*
X51516918Y14029004D01*
X51516918Y14029004D02*
X52088347Y14029004D01*
X52088347Y14029004D02*
X52088347Y15529004D01*
X52088347Y15529004D02*
X51588347Y15529004D01*
X51588347Y15529004D02*
X51445490Y15457575D01*
X51445490Y15457575D02*
X51374061Y15386147D01*
X51374061Y15386147D02*
X51302632Y15243290D01*
X51302632Y15243290D02*
X51302632Y15100432D01*
X51302632Y15100432D02*
X51374061Y14957575D01*
X51374061Y14957575D02*
X51445490Y14886147D01*
X51445490Y14886147D02*
X51588347Y14814718D01*
X51588347Y14814718D02*
X52088347Y14814718D01*
X50302632Y15529004D02*
X50016918Y15529004D01*
X50016918Y15529004D02*
X49874061Y15457575D01*
X49874061Y15457575D02*
X49731204Y15314718D01*
X49731204Y15314718D02*
X49659775Y15029004D01*
X49659775Y15029004D02*
X49659775Y14529004D01*
X49659775Y14529004D02*
X49731204Y14243290D01*
X49731204Y14243290D02*
X49874061Y14100432D01*
X49874061Y14100432D02*
X50016918Y14029004D01*
X50016918Y14029004D02*
X50302632Y14029004D01*
X50302632Y14029004D02*
X50445490Y14100432D01*
X50445490Y14100432D02*
X50588347Y14243290D01*
X50588347Y14243290D02*
X50659775Y14529004D01*
X50659775Y14529004D02*
X50659775Y15029004D01*
X50659775Y15029004D02*
X50588347Y15314718D01*
X50588347Y15314718D02*
X50445490Y15457575D01*
X50445490Y15457575D02*
X50302632Y15529004D01*
X49088346Y14457575D02*
X48374061Y14457575D01*
X49231203Y14029004D02*
X48731203Y15529004D01*
X48731203Y15529004D02*
X48231203Y14029004D01*
X46874061Y14029004D02*
X47374061Y14743290D01*
X47731204Y14029004D02*
X47731204Y15529004D01*
X47731204Y15529004D02*
X47159775Y15529004D01*
X47159775Y15529004D02*
X47016918Y15457575D01*
X47016918Y15457575D02*
X46945489Y15386147D01*
X46945489Y15386147D02*
X46874061Y15243290D01*
X46874061Y15243290D02*
X46874061Y15029004D01*
X46874061Y15029004D02*
X46945489Y14886147D01*
X46945489Y14886147D02*
X47016918Y14814718D01*
X47016918Y14814718D02*
X47159775Y14743290D01*
X47159775Y14743290D02*
X47731204Y14743290D01*
X46231204Y14029004D02*
X46231204Y15529004D01*
X46231204Y15529004D02*
X45874061Y15529004D01*
X45874061Y15529004D02*
X45659775Y15457575D01*
X45659775Y15457575D02*
X45516918Y15314718D01*
X45516918Y15314718D02*
X45445489Y15171861D01*
X45445489Y15171861D02*
X45374061Y14886147D01*
X45374061Y14886147D02*
X45374061Y14671861D01*
X45374061Y14671861D02*
X45445489Y14386147D01*
X45445489Y14386147D02*
X45516918Y14243290D01*
X45516918Y14243290D02*
X45659775Y14100432D01*
X45659775Y14100432D02*
X45874061Y14029004D01*
X45874061Y14029004D02*
X46231204Y14029004D01*
X43588347Y14029004D02*
X43588347Y15529004D01*
X42874061Y14029004D02*
X42874061Y15529004D01*
X42874061Y15529004D02*
X42016918Y14029004D01*
X42016918Y14029004D02*
X42016918Y15529004D01*
X41374060Y14100432D02*
X41159775Y14029004D01*
X41159775Y14029004D02*
X40802632Y14029004D01*
X40802632Y14029004D02*
X40659775Y14100432D01*
X40659775Y14100432D02*
X40588346Y14171861D01*
X40588346Y14171861D02*
X40516917Y14314718D01*
X40516917Y14314718D02*
X40516917Y14457575D01*
X40516917Y14457575D02*
X40588346Y14600432D01*
X40588346Y14600432D02*
X40659775Y14671861D01*
X40659775Y14671861D02*
X40802632Y14743290D01*
X40802632Y14743290D02*
X41088346Y14814718D01*
X41088346Y14814718D02*
X41231203Y14886147D01*
X41231203Y14886147D02*
X41302632Y14957575D01*
X41302632Y14957575D02*
X41374060Y15100432D01*
X41374060Y15100432D02*
X41374060Y15243290D01*
X41374060Y15243290D02*
X41302632Y15386147D01*
X41302632Y15386147D02*
X41231203Y15457575D01*
X41231203Y15457575D02*
X41088346Y15529004D01*
X41088346Y15529004D02*
X40731203Y15529004D01*
X40731203Y15529004D02*
X40516917Y15457575D01*
X40088346Y15529004D02*
X39231204Y15529004D01*
X39659775Y14029004D02*
X39659775Y15529004D01*
X37874061Y14029004D02*
X38374061Y14743290D01*
X38731204Y14029004D02*
X38731204Y15529004D01*
X38731204Y15529004D02*
X38159775Y15529004D01*
X38159775Y15529004D02*
X38016918Y15457575D01*
X38016918Y15457575D02*
X37945489Y15386147D01*
X37945489Y15386147D02*
X37874061Y15243290D01*
X37874061Y15243290D02*
X37874061Y15029004D01*
X37874061Y15029004D02*
X37945489Y14886147D01*
X37945489Y14886147D02*
X38016918Y14814718D01*
X38016918Y14814718D02*
X38159775Y14743290D01*
X38159775Y14743290D02*
X38731204Y14743290D01*
X37231204Y15529004D02*
X37231204Y14314718D01*
X37231204Y14314718D02*
X37159775Y14171861D01*
X37159775Y14171861D02*
X37088347Y14100432D01*
X37088347Y14100432D02*
X36945489Y14029004D01*
X36945489Y14029004D02*
X36659775Y14029004D01*
X36659775Y14029004D02*
X36516918Y14100432D01*
X36516918Y14100432D02*
X36445489Y14171861D01*
X36445489Y14171861D02*
X36374061Y14314718D01*
X36374061Y14314718D02*
X36374061Y15529004D01*
X35659775Y14029004D02*
X35659775Y15529004D01*
X35659775Y15529004D02*
X35159775Y14457575D01*
X35159775Y14457575D02*
X34659775Y15529004D01*
X34659775Y15529004D02*
X34659775Y14029004D01*
X33945489Y14814718D02*
X33445489Y14814718D01*
X33231203Y14029004D02*
X33945489Y14029004D01*
X33945489Y14029004D02*
X33945489Y15529004D01*
X33945489Y15529004D02*
X33231203Y15529004D01*
X32588346Y14029004D02*
X32588346Y15529004D01*
X32588346Y15529004D02*
X31731203Y14029004D01*
X31731203Y14029004D02*
X31731203Y15529004D01*
X31231202Y15529004D02*
X30374060Y15529004D01*
X30802631Y14029004D02*
X30802631Y15529004D01*
X28802631Y14457575D02*
X28088346Y14457575D01*
X28945488Y14029004D02*
X28445488Y15529004D01*
X28445488Y15529004D02*
X27945488Y14029004D01*
X26588346Y14029004D02*
X27088346Y14743290D01*
X27445489Y14029004D02*
X27445489Y15529004D01*
X27445489Y15529004D02*
X26874060Y15529004D01*
X26874060Y15529004D02*
X26731203Y15457575D01*
X26731203Y15457575D02*
X26659774Y15386147D01*
X26659774Y15386147D02*
X26588346Y15243290D01*
X26588346Y15243290D02*
X26588346Y15029004D01*
X26588346Y15029004D02*
X26659774Y14886147D01*
X26659774Y14886147D02*
X26731203Y14814718D01*
X26731203Y14814718D02*
X26874060Y14743290D01*
X26874060Y14743290D02*
X27445489Y14743290D01*
X25945489Y14029004D02*
X25945489Y15529004D01*
X25945489Y15529004D02*
X25588346Y15529004D01*
X25588346Y15529004D02*
X25374060Y15457575D01*
X25374060Y15457575D02*
X25231203Y15314718D01*
X25231203Y15314718D02*
X25159774Y15171861D01*
X25159774Y15171861D02*
X25088346Y14886147D01*
X25088346Y14886147D02*
X25088346Y14671861D01*
X25088346Y14671861D02*
X25159774Y14386147D01*
X25159774Y14386147D02*
X25231203Y14243290D01*
X25231203Y14243290D02*
X25374060Y14100432D01*
X25374060Y14100432D02*
X25588346Y14029004D01*
X25588346Y14029004D02*
X25945489Y14029004D01*
X24445489Y15529004D02*
X24445489Y14314718D01*
X24445489Y14314718D02*
X24374060Y14171861D01*
X24374060Y14171861D02*
X24302632Y14100432D01*
X24302632Y14100432D02*
X24159774Y14029004D01*
X24159774Y14029004D02*
X23874060Y14029004D01*
X23874060Y14029004D02*
X23731203Y14100432D01*
X23731203Y14100432D02*
X23659774Y14171861D01*
X23659774Y14171861D02*
X23588346Y14314718D01*
X23588346Y14314718D02*
X23588346Y15529004D01*
X22874060Y14029004D02*
X22874060Y15529004D01*
X22159774Y14029004D02*
X22159774Y15529004D01*
X22159774Y15529004D02*
X21302631Y14029004D01*
X21302631Y14029004D02*
X21302631Y15529004D01*
X20302630Y15529004D02*
X20016916Y15529004D01*
X20016916Y15529004D02*
X19874059Y15457575D01*
X19874059Y15457575D02*
X19731202Y15314718D01*
X19731202Y15314718D02*
X19659773Y15029004D01*
X19659773Y15029004D02*
X19659773Y14529004D01*
X19659773Y14529004D02*
X19731202Y14243290D01*
X19731202Y14243290D02*
X19874059Y14100432D01*
X19874059Y14100432D02*
X20016916Y14029004D01*
X20016916Y14029004D02*
X20302630Y14029004D01*
X20302630Y14029004D02*
X20445488Y14100432D01*
X20445488Y14100432D02*
X20588345Y14243290D01*
X20588345Y14243290D02*
X20659773Y14529004D01*
X20659773Y14529004D02*
X20659773Y15029004D01*
X20659773Y15029004D02*
X20588345Y15314718D01*
X20588345Y15314718D02*
X20445488Y15457575D01*
X20445488Y15457575D02*
X20302630Y15529004D01*
X17945487Y14100432D02*
X17731202Y14029004D01*
X17731202Y14029004D02*
X17374059Y14029004D01*
X17374059Y14029004D02*
X17231202Y14100432D01*
X17231202Y14100432D02*
X17159773Y14171861D01*
X17159773Y14171861D02*
X17088344Y14314718D01*
X17088344Y14314718D02*
X17088344Y14457575D01*
X17088344Y14457575D02*
X17159773Y14600432D01*
X17159773Y14600432D02*
X17231202Y14671861D01*
X17231202Y14671861D02*
X17374059Y14743290D01*
X17374059Y14743290D02*
X17659773Y14814718D01*
X17659773Y14814718D02*
X17802630Y14886147D01*
X17802630Y14886147D02*
X17874059Y14957575D01*
X17874059Y14957575D02*
X17945487Y15100432D01*
X17945487Y15100432D02*
X17945487Y15243290D01*
X17945487Y15243290D02*
X17874059Y15386147D01*
X17874059Y15386147D02*
X17802630Y15457575D01*
X17802630Y15457575D02*
X17659773Y15529004D01*
X17659773Y15529004D02*
X17302630Y15529004D01*
X17302630Y15529004D02*
X17088344Y15457575D01*
X16445488Y14029004D02*
X16445488Y15529004D01*
X16445488Y14814718D02*
X15588345Y14814718D01*
X15588345Y14029004D02*
X15588345Y15529004D01*
X14874059Y14029004D02*
X14874059Y15529004D01*
X14159773Y14814718D02*
X13659773Y14814718D01*
X13445487Y14029004D02*
X14159773Y14029004D01*
X14159773Y14029004D02*
X14159773Y15529004D01*
X14159773Y15529004D02*
X13445487Y15529004D01*
X12088344Y14029004D02*
X12802630Y14029004D01*
X12802630Y14029004D02*
X12802630Y15529004D01*
X11588344Y14029004D02*
X11588344Y15529004D01*
X11588344Y15529004D02*
X11231201Y15529004D01*
X11231201Y15529004D02*
X11016915Y15457575D01*
X11016915Y15457575D02*
X10874058Y15314718D01*
X10874058Y15314718D02*
X10802629Y15171861D01*
X10802629Y15171861D02*
X10731201Y14886147D01*
X10731201Y14886147D02*
X10731201Y14671861D01*
X10731201Y14671861D02*
X10802629Y14386147D01*
X10802629Y14386147D02*
X10874058Y14243290D01*
X10874058Y14243290D02*
X11016915Y14100432D01*
X11016915Y14100432D02*
X11231201Y14029004D01*
X11231201Y14029004D02*
X11588344Y14029004D01*
X60945489Y11614088D02*
X60945489Y13114088D01*
X60945489Y13114088D02*
X60588346Y13114088D01*
X60588346Y13114088D02*
X60374060Y13042659D01*
X60374060Y13042659D02*
X60231203Y12899802D01*
X60231203Y12899802D02*
X60159774Y12756945D01*
X60159774Y12756945D02*
X60088346Y12471231D01*
X60088346Y12471231D02*
X60088346Y12256945D01*
X60088346Y12256945D02*
X60159774Y11971231D01*
X60159774Y11971231D02*
X60231203Y11828374D01*
X60231203Y11828374D02*
X60374060Y11685516D01*
X60374060Y11685516D02*
X60588346Y11614088D01*
X60588346Y11614088D02*
X60945489Y11614088D01*
X59445489Y11756945D02*
X59374060Y11685516D01*
X59374060Y11685516D02*
X59445489Y11614088D01*
X59445489Y11614088D02*
X59516917Y11685516D01*
X59516917Y11685516D02*
X59445489Y11756945D01*
X59445489Y11756945D02*
X59445489Y11614088D01*
X58802631Y11685516D02*
X58588346Y11614088D01*
X58588346Y11614088D02*
X58231203Y11614088D01*
X58231203Y11614088D02*
X58088346Y11685516D01*
X58088346Y11685516D02*
X58016917Y11756945D01*
X58016917Y11756945D02*
X57945488Y11899802D01*
X57945488Y11899802D02*
X57945488Y12042659D01*
X57945488Y12042659D02*
X58016917Y12185516D01*
X58016917Y12185516D02*
X58088346Y12256945D01*
X58088346Y12256945D02*
X58231203Y12328374D01*
X58231203Y12328374D02*
X58516917Y12399802D01*
X58516917Y12399802D02*
X58659774Y12471231D01*
X58659774Y12471231D02*
X58731203Y12542659D01*
X58731203Y12542659D02*
X58802631Y12685516D01*
X58802631Y12685516D02*
X58802631Y12828374D01*
X58802631Y12828374D02*
X58731203Y12971231D01*
X58731203Y12971231D02*
X58659774Y13042659D01*
X58659774Y13042659D02*
X58516917Y13114088D01*
X58516917Y13114088D02*
X58159774Y13114088D01*
X58159774Y13114088D02*
X57945488Y13042659D01*
X57302632Y11614088D02*
X57302632Y13114088D01*
X57302632Y12399802D02*
X56445489Y12399802D01*
X56445489Y11614088D02*
X56445489Y13114088D01*
X55731203Y12399802D02*
X55231203Y12399802D01*
X55016917Y11614088D02*
X55731203Y11614088D01*
X55731203Y11614088D02*
X55731203Y13114088D01*
X55731203Y13114088D02*
X55016917Y13114088D01*
X53516917Y11614088D02*
X54016917Y12328374D01*
X54374060Y11614088D02*
X54374060Y13114088D01*
X54374060Y13114088D02*
X53802631Y13114088D01*
X53802631Y13114088D02*
X53659774Y13042659D01*
X53659774Y13042659D02*
X53588345Y12971231D01*
X53588345Y12971231D02*
X53516917Y12828374D01*
X53516917Y12828374D02*
X53516917Y12614088D01*
X53516917Y12614088D02*
X53588345Y12471231D01*
X53588345Y12471231D02*
X53659774Y12399802D01*
X53659774Y12399802D02*
X53802631Y12328374D01*
X53802631Y12328374D02*
X54374060Y12328374D01*
X52874060Y11614088D02*
X52874060Y13114088D01*
X52874060Y13114088D02*
X52374060Y12042659D01*
X52374060Y12042659D02*
X51874060Y13114088D01*
X51874060Y13114088D02*
X51874060Y11614088D01*
X51231202Y12042659D02*
X50516917Y12042659D01*
X51374059Y11614088D02*
X50874059Y13114088D01*
X50874059Y13114088D02*
X50374059Y11614088D01*
X49874060Y11614088D02*
X49874060Y13114088D01*
X49874060Y13114088D02*
X49016917Y11614088D01*
X49016917Y11614088D02*
X49016917Y13114088D01*
X60659774Y10699172D02*
X60516917Y10699172D01*
X60516917Y10699172D02*
X60374060Y10627743D01*
X60374060Y10627743D02*
X60302632Y10556315D01*
X60302632Y10556315D02*
X60231203Y10413458D01*
X60231203Y10413458D02*
X60159774Y10127743D01*
X60159774Y10127743D02*
X60159774Y9770600D01*
X60159774Y9770600D02*
X60231203Y9484886D01*
X60231203Y9484886D02*
X60302632Y9342029D01*
X60302632Y9342029D02*
X60374060Y9270600D01*
X60374060Y9270600D02*
X60516917Y9199172D01*
X60516917Y9199172D02*
X60659774Y9199172D01*
X60659774Y9199172D02*
X60802632Y9270600D01*
X60802632Y9270600D02*
X60874060Y9342029D01*
X60874060Y9342029D02*
X60945489Y9484886D01*
X60945489Y9484886D02*
X61016917Y9770600D01*
X61016917Y9770600D02*
X61016917Y10127743D01*
X61016917Y10127743D02*
X60945489Y10413458D01*
X60945489Y10413458D02*
X60874060Y10556315D01*
X60874060Y10556315D02*
X60802632Y10627743D01*
X60802632Y10627743D02*
X60659774Y10699172D01*
X58874061Y10199172D02*
X58874061Y9199172D01*
X59231203Y10770600D02*
X59588346Y9699172D01*
X59588346Y9699172D02*
X58659775Y9699172D01*
X57016918Y10770600D02*
X58302632Y8842029D01*
X56588346Y10556315D02*
X56516918Y10627743D01*
X56516918Y10627743D02*
X56374061Y10699172D01*
X56374061Y10699172D02*
X56016918Y10699172D01*
X56016918Y10699172D02*
X55874061Y10627743D01*
X55874061Y10627743D02*
X55802632Y10556315D01*
X55802632Y10556315D02*
X55731203Y10413458D01*
X55731203Y10413458D02*
X55731203Y10270600D01*
X55731203Y10270600D02*
X55802632Y10056315D01*
X55802632Y10056315D02*
X56659775Y9199172D01*
X56659775Y9199172D02*
X55731203Y9199172D01*
X54445490Y10199172D02*
X54445490Y9199172D01*
X54802632Y10770600D02*
X55159775Y9699172D01*
X55159775Y9699172D02*
X54231204Y9699172D01*
D11*
X23920057Y30889524D02*
X23872438Y30841905D01*
X23872438Y30841905D02*
X23824819Y30746667D01*
X23824819Y30746667D02*
X23824819Y30508572D01*
X23824819Y30508572D02*
X23872438Y30413334D01*
X23872438Y30413334D02*
X23920057Y30365715D01*
X23920057Y30365715D02*
X24015295Y30318096D01*
X24015295Y30318096D02*
X24110533Y30318096D01*
X24110533Y30318096D02*
X24253390Y30365715D01*
X24253390Y30365715D02*
X24824819Y30937143D01*
X24824819Y30937143D02*
X24824819Y30318096D01*
X23920057Y29937143D02*
X23872438Y29889524D01*
X23872438Y29889524D02*
X23824819Y29794286D01*
X23824819Y29794286D02*
X23824819Y29556191D01*
X23824819Y29556191D02*
X23872438Y29460953D01*
X23872438Y29460953D02*
X23920057Y29413334D01*
X23920057Y29413334D02*
X24015295Y29365715D01*
X24015295Y29365715D02*
X24110533Y29365715D01*
X24110533Y29365715D02*
X24253390Y29413334D01*
X24253390Y29413334D02*
X24824819Y29984762D01*
X24824819Y29984762D02*
X24824819Y29365715D01*
X23824819Y28746667D02*
X23824819Y28651429D01*
X23824819Y28651429D02*
X23872438Y28556191D01*
X23872438Y28556191D02*
X23920057Y28508572D01*
X23920057Y28508572D02*
X24015295Y28460953D01*
X24015295Y28460953D02*
X24205771Y28413334D01*
X24205771Y28413334D02*
X24443866Y28413334D01*
X24443866Y28413334D02*
X24634342Y28460953D01*
X24634342Y28460953D02*
X24729580Y28508572D01*
X24729580Y28508572D02*
X24777200Y28556191D01*
X24777200Y28556191D02*
X24824819Y28651429D01*
X24824819Y28651429D02*
X24824819Y28746667D01*
X24824819Y28746667D02*
X24777200Y28841905D01*
X24777200Y28841905D02*
X24729580Y28889524D01*
X24729580Y28889524D02*
X24634342Y28937143D01*
X24634342Y28937143D02*
X24443866Y28984762D01*
X24443866Y28984762D02*
X24205771Y28984762D01*
X24205771Y28984762D02*
X24015295Y28937143D01*
X24015295Y28937143D02*
X23920057Y28889524D01*
X23920057Y28889524D02*
X23872438Y28841905D01*
X23872438Y28841905D02*
X23824819Y28746667D01*
X24824819Y28032381D02*
X24824819Y27794286D01*
X24824819Y27794286D02*
X24634342Y27794286D01*
X24634342Y27794286D02*
X24586723Y27889524D01*
X24586723Y27889524D02*
X24491485Y27984762D01*
X24491485Y27984762D02*
X24348628Y28032381D01*
X24348628Y28032381D02*
X24110533Y28032381D01*
X24110533Y28032381D02*
X23967676Y27984762D01*
X23967676Y27984762D02*
X23872438Y27889524D01*
X23872438Y27889524D02*
X23824819Y27746667D01*
X23824819Y27746667D02*
X23824819Y27556191D01*
X23824819Y27556191D02*
X23872438Y27413334D01*
X23872438Y27413334D02*
X23967676Y27318096D01*
X23967676Y27318096D02*
X24110533Y27270477D01*
X24110533Y27270477D02*
X24348628Y27270477D01*
X24348628Y27270477D02*
X24491485Y27318096D01*
X24491485Y27318096D02*
X24586723Y27413334D01*
X24586723Y27413334D02*
X24634342Y27508572D01*
X24634342Y27508572D02*
X24824819Y27508572D01*
X24824819Y27508572D02*
X24824819Y27270477D01*
X36584819Y29246667D02*
X36108628Y29580000D01*
X36584819Y29818095D02*
X35584819Y29818095D01*
X35584819Y29818095D02*
X35584819Y29437143D01*
X35584819Y29437143D02*
X35632438Y29341905D01*
X35632438Y29341905D02*
X35680057Y29294286D01*
X35680057Y29294286D02*
X35775295Y29246667D01*
X35775295Y29246667D02*
X35918152Y29246667D01*
X35918152Y29246667D02*
X36013390Y29294286D01*
X36013390Y29294286D02*
X36061009Y29341905D01*
X36061009Y29341905D02*
X36108628Y29437143D01*
X36108628Y29437143D02*
X36108628Y29818095D01*
X35584819Y28913333D02*
X35584819Y28294286D01*
X35584819Y28294286D02*
X35965771Y28627619D01*
X35965771Y28627619D02*
X35965771Y28484762D01*
X35965771Y28484762D02*
X36013390Y28389524D01*
X36013390Y28389524D02*
X36061009Y28341905D01*
X36061009Y28341905D02*
X36156247Y28294286D01*
X36156247Y28294286D02*
X36394342Y28294286D01*
X36394342Y28294286D02*
X36489580Y28341905D01*
X36489580Y28341905D02*
X36537200Y28389524D01*
X36537200Y28389524D02*
X36584819Y28484762D01*
X36584819Y28484762D02*
X36584819Y28770476D01*
X36584819Y28770476D02*
X36537200Y28865714D01*
X36537200Y28865714D02*
X36489580Y28913333D01*
X41324819Y29937143D02*
X41324819Y30508571D01*
X41324819Y30222857D02*
X40324819Y30222857D01*
X40324819Y30222857D02*
X40467676Y30318095D01*
X40467676Y30318095D02*
X40562914Y30413333D01*
X40562914Y30413333D02*
X40610533Y30508571D01*
X41324819Y29508571D02*
X40324819Y29508571D01*
X40324819Y29508571D02*
X41039104Y29175238D01*
X41039104Y29175238D02*
X40324819Y28841905D01*
X40324819Y28841905D02*
X41324819Y28841905D01*
X41324819Y28413333D02*
X41324819Y28175238D01*
X41324819Y28175238D02*
X41134342Y28175238D01*
X41134342Y28175238D02*
X41086723Y28270476D01*
X41086723Y28270476D02*
X40991485Y28365714D01*
X40991485Y28365714D02*
X40848628Y28413333D01*
X40848628Y28413333D02*
X40610533Y28413333D01*
X40610533Y28413333D02*
X40467676Y28365714D01*
X40467676Y28365714D02*
X40372438Y28270476D01*
X40372438Y28270476D02*
X40324819Y28127619D01*
X40324819Y28127619D02*
X40324819Y27937143D01*
X40324819Y27937143D02*
X40372438Y27794286D01*
X40372438Y27794286D02*
X40467676Y27699048D01*
X40467676Y27699048D02*
X40610533Y27651429D01*
X40610533Y27651429D02*
X40848628Y27651429D01*
X40848628Y27651429D02*
X40991485Y27699048D01*
X40991485Y27699048D02*
X41086723Y27794286D01*
X41086723Y27794286D02*
X41134342Y27889524D01*
X41134342Y27889524D02*
X41324819Y27889524D01*
X41324819Y27889524D02*
X41324819Y27651429D01*
X28584819Y29246667D02*
X28108628Y29580000D01*
X28584819Y29818095D02*
X27584819Y29818095D01*
X27584819Y29818095D02*
X27584819Y29437143D01*
X27584819Y29437143D02*
X27632438Y29341905D01*
X27632438Y29341905D02*
X27680057Y29294286D01*
X27680057Y29294286D02*
X27775295Y29246667D01*
X27775295Y29246667D02*
X27918152Y29246667D01*
X27918152Y29246667D02*
X28013390Y29294286D01*
X28013390Y29294286D02*
X28061009Y29341905D01*
X28061009Y29341905D02*
X28108628Y29437143D01*
X28108628Y29437143D02*
X28108628Y29818095D01*
X27680057Y28865714D02*
X27632438Y28818095D01*
X27632438Y28818095D02*
X27584819Y28722857D01*
X27584819Y28722857D02*
X27584819Y28484762D01*
X27584819Y28484762D02*
X27632438Y28389524D01*
X27632438Y28389524D02*
X27680057Y28341905D01*
X27680057Y28341905D02*
X27775295Y28294286D01*
X27775295Y28294286D02*
X27870533Y28294286D01*
X27870533Y28294286D02*
X28013390Y28341905D01*
X28013390Y28341905D02*
X28584819Y28913333D01*
X28584819Y28913333D02*
X28584819Y28294286D01*
X33324819Y30246667D02*
X33324819Y30818095D01*
X33324819Y30532381D02*
X32324819Y30532381D01*
X32324819Y30532381D02*
X32467676Y30627619D01*
X32467676Y30627619D02*
X32562914Y30722857D01*
X32562914Y30722857D02*
X32610533Y30818095D01*
X32324819Y29627619D02*
X32324819Y29532381D01*
X32324819Y29532381D02*
X32372438Y29437143D01*
X32372438Y29437143D02*
X32420057Y29389524D01*
X32420057Y29389524D02*
X32515295Y29341905D01*
X32515295Y29341905D02*
X32705771Y29294286D01*
X32705771Y29294286D02*
X32943866Y29294286D01*
X32943866Y29294286D02*
X33134342Y29341905D01*
X33134342Y29341905D02*
X33229580Y29389524D01*
X33229580Y29389524D02*
X33277200Y29437143D01*
X33277200Y29437143D02*
X33324819Y29532381D01*
X33324819Y29532381D02*
X33324819Y29627619D01*
X33324819Y29627619D02*
X33277200Y29722857D01*
X33277200Y29722857D02*
X33229580Y29770476D01*
X33229580Y29770476D02*
X33134342Y29818095D01*
X33134342Y29818095D02*
X32943866Y29865714D01*
X32943866Y29865714D02*
X32705771Y29865714D01*
X32705771Y29865714D02*
X32515295Y29818095D01*
X32515295Y29818095D02*
X32420057Y29770476D01*
X32420057Y29770476D02*
X32372438Y29722857D01*
X32372438Y29722857D02*
X32324819Y29627619D01*
X33324819Y28865714D02*
X32324819Y28865714D01*
X32943866Y28770476D02*
X33324819Y28484762D01*
X32658152Y28484762D02*
X33039104Y28865714D01*
X33324819Y28103809D02*
X33324819Y27865714D01*
X33324819Y27865714D02*
X33134342Y27865714D01*
X33134342Y27865714D02*
X33086723Y27960952D01*
X33086723Y27960952D02*
X32991485Y28056190D01*
X32991485Y28056190D02*
X32848628Y28103809D01*
X32848628Y28103809D02*
X32610533Y28103809D01*
X32610533Y28103809D02*
X32467676Y28056190D01*
X32467676Y28056190D02*
X32372438Y27960952D01*
X32372438Y27960952D02*
X32324819Y27818095D01*
X32324819Y27818095D02*
X32324819Y27627619D01*
X32324819Y27627619D02*
X32372438Y27484762D01*
X32372438Y27484762D02*
X32467676Y27389524D01*
X32467676Y27389524D02*
X32610533Y27341905D01*
X32610533Y27341905D02*
X32848628Y27341905D01*
X32848628Y27341905D02*
X32991485Y27389524D01*
X32991485Y27389524D02*
X33086723Y27484762D01*
X33086723Y27484762D02*
X33134342Y27580000D01*
X33134342Y27580000D02*
X33324819Y27580000D01*
X33324819Y27580000D02*
X33324819Y27341905D01*
D12*
%TO.C,R1*%
X20630000Y32350000D02*
X20630000Y25810000D01*
X20630000Y25810000D02*
X23370000Y25810000D01*
X22000000Y32350000D02*
X22000000Y33120000D01*
X22000000Y25810000D02*
X22000000Y25040000D01*
X23370000Y32350000D02*
X20630000Y32350000D01*
X23370000Y25810000D02*
X23370000Y32350000D01*
%TO.C,R3*%
X37130000Y32350000D02*
X37130000Y25810000D01*
X37130000Y25810000D02*
X39870000Y25810000D01*
X38500000Y32350000D02*
X38500000Y33120000D01*
X38500000Y25810000D02*
X38500000Y25040000D01*
X39870000Y32350000D02*
X37130000Y32350000D01*
X39870000Y25810000D02*
X39870000Y32350000D01*
%TO.C,R2*%
X29130000Y32350000D02*
X29130000Y25810000D01*
X29130000Y25810000D02*
X31870000Y25810000D01*
X30500000Y32350000D02*
X30500000Y33120000D01*
X30500000Y25810000D02*
X30500000Y25040000D01*
X31870000Y32350000D02*
X29130000Y32350000D01*
X31870000Y25810000D02*
X31870000Y32350000D01*
%TD*%
D13*
X27940000Y2540000D03*
X30480000Y2540000D03*
X33020000Y2540000D03*
X35560000Y2540000D03*
X38100000Y2540000D03*
X40640000Y2540000D03*
X43180000Y2540000D03*
X45720000Y2540000D03*
X50800000Y2540000D03*
X53340000Y2540000D03*
X55880000Y2540000D03*
X58420000Y2540000D03*
X60960000Y2540000D03*
X63500000Y2540000D03*
X18796000Y50800000D03*
X21336000Y50800000D03*
X23876000Y50800000D03*
X26416000Y50800000D03*
X28956000Y50800000D03*
X31496000Y50800000D03*
X34036000Y50800000D03*
X36576000Y50800000D03*
X39116000Y50800000D03*
X41656000Y50800000D03*
X45720000Y50800000D03*
X48260000Y50800000D03*
X50800000Y50800000D03*
X53340000Y50800000D03*
X55880000Y50800000D03*
X58420000Y50800000D03*
X60960000Y50800000D03*
X63500000Y50800000D03*
X24000000Y11000000D03*
X24000000Y17500000D03*
X28500000Y17500000D03*
X28500000Y11000000D03*
X40000000Y11000000D03*
X40000000Y17500000D03*
X44500000Y17500000D03*
X44500000Y11000000D03*
X16000000Y11000000D03*
X16000000Y17500000D03*
X20500000Y17500000D03*
X20500000Y11000000D03*
X58000000Y21840000D03*
X58000000Y32000000D03*
X32000000Y11000000D03*
X32000000Y17500000D03*
X36500000Y17500000D03*
X36500000Y11000000D03*
X15240000Y50800000D03*
X51000000Y41500000D03*
X61000000Y41500000D03*
X13970000Y2540000D03*
X66040000Y35560000D03*
X66040000Y7620000D03*
X22000000Y34160000D03*
X22000000Y24000000D03*
X38500000Y34160000D03*
X38500000Y24000000D03*
X30500000Y34160000D03*
X30500000Y24000000D03*
M02*
